<?xml version="1.0" encoding="UTF-8" standalone="no"?>
<!-- Created with Inkscape (http://www.inkscape.org/) -->

<svg
   xmlns:dc="http://purl.org/dc/elements/1.1/"
   xmlns:cc="http://creativecommons.org/ns#"
   xmlns:rdf="http://www.w3.org/1999/02/22-rdf-syntax-ns#"
   xmlns:svg="http://www.w3.org/2000/svg"
   xmlns="http://www.w3.org/2000/svg"
   xmlns:sodipodi="http://sodipodi.sourceforge.net/DTD/sodipodi-0.dtd"
   xmlns:inkscape="http://www.inkscape.org/namespaces/inkscape"
   width="240mm"
   height="80mm"
   viewBox="0 0 850.3937 283.46456"
   id="svg2"
   version="1.1"
   inkscape:version="0.91 r13725"
   sodipodi:docname="1.svg">
  <defs
     id="defs4" />
  <sodipodi:namedview
     id="base"
     pagecolor="#ffffff"
     bordercolor="#666666"
     borderopacity="1.0"
     inkscape:pageopacity="0.0"
     inkscape:pageshadow="2"
     inkscape:zoom="0.52898066"
     inkscape:cx="274.88738"
     inkscape:cy="61.391244"
     inkscape:document-units="px"
     inkscape:current-layer="layer1"
     showgrid="false"
     showguides="false"
     fit-margin-top="0"
     fit-margin-left="0"
     fit-margin-right="0"
     fit-margin-bottom="0"
     inkscape:window-width="1280"
     inkscape:window-height="961"
     inkscape:window-x="-8"
     inkscape:window-y="-8"
     inkscape:window-maximized="1" />
  <metadata
     id="metadata7">
    <rdf:RDF>
      <cc:Work
         rdf:about="">
        <dc:format>image/svg+xml</dc:format>
        <dc:type
           rdf:resource="http://purl.org/dc/dcmitype/StillImage" />
        <dc:title></dc:title>
      </cc:Work>
    </rdf:RDF>
  </metadata>
  <g
     inkscape:label="Layer 1"
     inkscape:groupmode="layer"
     id="layer1"
     transform="translate(-10.983758,-598.9925)">
    <path
       style="fill:#000000;fill-rule:evenodd;stroke:none;stroke-width:1px;stroke-linecap:butt;stroke-linejoin:miter;stroke-opacity:1"
       d="m 180.43019,608.83364 c -20.6537,4.33362 -51.25459,12.49864 -66.09167,25.9342 -14.83709,13.43555 -22.719024,34.57892 -22.719024,43.22364 0,8.64474 8.478524,32.02843 4.130731,47.54603 -4.347801,15.51759 -22.644806,21.79119 -28.91511,38.90128 -6.270306,17.1101 -10.523216,45.40317 -4.130731,60.51312 6.392485,15.10994 13.905705,15.6221 28.91511,23.773 15.009404,8.1509 41.022494,16.60697 61.960954,19.45064 20.93846,2.84367 45.10206,6.11666 61.96094,-2.16119 16.85889,-8.27785 18.34326,-29.68238 33.04585,-38.90128 14.7026,-9.21888 27.8013,-17.48799 51.63411,-12.96709 23.83283,4.5209 46.86146,43.44728 76.41852,54.02956 29.55705,10.58228 58.49743,9.07631 95.00679,6.48355 36.50935,-2.59276 82.05571,-21.74179 121.85654,-25.93419 39.80082,-4.1924 85.36923,6.82539 115.66043,0 30.2912,-6.82539 48.01935,-11.53086 64.02632,-30.25656 16.00697,-18.7257 21.56959,-48.83899 22.71901,-73.48021 1.14943,-24.64121 -4.14336,-49.41967 -14.45755,-69.15783 -10.3142,-19.73817 -17.62298,-32.40039 -43.37267,-45.38484 -25.74968,-12.98445 -67.8094,-9.22065 -109.46434,-12.9671 -41.65494,-3.74645 -94.53855,-12.77306 -140.44482,-8.64473 -45.90627,4.12834 -98.28098,32.15412 -132.18335,32.41774 -33.90238,0.26362 -46.12061,-9.24781 -66.09169,-15.12827 -19.97109,-5.88046 -35.13354,-16.552 -53.69949,-19.45065 -18.56595,-2.89864 -35.11115,-2.17243 -55.76486,2.16118 z"
       id="path4558"
       inkscape:connector-curvature="0"
       sodipodi:nodetypes="zzzzzzzzzzzzzzzzzzzzzzzzz" />
    <g
       transform="translate(-336.65743,607.07434)"
       id="g4410">
      <path
         sodipodi:nodetypes="czccc"
         inkscape:connector-curvature="0"
         id="path4412"
         d="m 445.13264,195.51529 c 0,0 -1.15378,6.88303 1.33674,22.05612 2.49052,15.17309 13.89707,27.56655 14.03571,26.73469 l -4.67857,-51.46428 z"
         style="fill:#000000;fill-rule:evenodd;stroke:#ffffff;stroke-width:4;stroke-linecap:butt;stroke-linejoin:miter;stroke-opacity:1" />
      <path
         style="fill:#000000;fill-rule:evenodd;stroke:#ffffff;stroke-width:4;stroke-linecap:butt;stroke-linejoin:miter;stroke-opacity:1"
         d="m 468.73421,253.89626 c 0,0 -2.17956,41.61057 0.79349,65.0661 2.97306,23.45553 18.25025,74.58796 18.25025,74.58796 0,0 8.69692,-59.91291 11.90234,-80.93588 3.20541,-21.02296 7.1414,-45.22887 7.1414,-45.22887 0,0 11.54894,33.55012 27.77212,49.98981 16.22317,16.43968 70.62051,40.46794 70.62051,40.46794 0,0 -40.82077,-36.80687 -52.37027,-55.54423 -11.5495,-18.73736 -19.04373,-52.37028 -19.04373,-52.37028 l -38.88097,-32.53305 z"
         id="path4414"
         inkscape:connector-curvature="0"
         sodipodi:nodetypes="czczczczccc" />
      <path
         style="fill:#000000;fill-opacity:1;fill-rule:evenodd;stroke:#ffffff;stroke-width:4;stroke-linecap:butt;stroke-linejoin:miter;stroke-opacity:1"
         d="m 474.6139,148.08356 c 0,0 12.59394,-18.86539 10.96345,-24.53624 -1.63049,-5.67085 -10.195,-4.65824 -13.9269,-9.94779 -3.7319,-5.28955 -6.29046,-14.599 -5.96867,-20.89035 0.32179,-6.29135 1.34962,-10.56635 5.96867,-14.92168 4.61905,-4.35533 13.76885,-7.7745 20.89035,-6.96345 7.1215,0.81105 13.29081,5.38597 17.90602,10.94256 4.61521,5.55659 8.46871,13.76885 7.95823,20.89035 -0.51048,7.1215 -6.69479,13.87947 -9.94779,17.90602 -3.253,4.02655 -6.53049,3.11244 -7.95823,6.96345 -1.42774,3.85101 5.36456,20.8019 5.36456,20.8019 z"
         id="path4416"
         inkscape:connector-curvature="0"
         sodipodi:nodetypes="czzzzzzzzzcc" />
      <path
         style="fill:#000000;fill-opacity:1;fill-rule:evenodd;stroke:#ffffff;stroke-width:4;stroke-linecap:butt;stroke-linejoin:miter;stroke-opacity:1"
         d="m 541.54849,172.63072 c 0,0 3.22286,18.05576 3.97911,24.86947 0.75625,6.81371 1.2348,11.24771 0.99478,15.91646 -0.24002,4.66875 -0.14928,8.6362 -1.98956,11.93734 -1.84028,3.30114 -7.95823,6.96345 -7.95823,6.96345 l -9.94778,-50.73371 z"
         id="path4418"
         inkscape:connector-curvature="0"
         sodipodi:nodetypes="czzzccc" />
      <path
         style="fill:#000000;fill-rule:nonzero;stroke:#ffffff;stroke-width:4;stroke-linecap:butt;stroke-linejoin:miter;stroke-opacity:1"
         d="m 456.99229,200.48453 c 1.52768,14.58666 5.96868,60.6815 5.96868,60.6815 0,0 26.64191,-0.15828 39.79115,-1.98956 13.14924,-1.83128 38.79637,-8.95301 38.79637,-8.95301 0,0 -9.92984,-62.89466 -13.92691,-81.57185 l 0.99478,16.91123 14.92168,-7.95823 c 0,0 -0.97357,-14.86506 -4.97389,-21.88513 -4.00032,-7.02007 -10.38961,-8.02218 -15.89559,-10.12784 -5.50598,-2.10566 -16.58227,-8.28372 -21.92419,-11.83864 0,0 -4.32673,9.72301 -8.89135,9.60646 -4.56462,-0.11655 -9.42167,-7.26335 -9.42167,-7.26335 -3.97147,3.26974 -7.42242,6.6987 -8.44995,9.10429 -1.02753,2.40558 -8.18834,4.12584 -12.13957,6.87101 -3.95123,2.74517 -8.08676,6.11947 -11.36225,8.68878 -3.27549,2.56931 -3.85342,3.9909 -5.34694,7.35203 -1.49352,3.36113 -2.17261,7.88862 -2.67347,12.69898 -0.50086,4.81036 0,16.04082 0,16.04082 l 10.69388,2.67347 0.66837,-22.72449 z"
         id="path4420"
         inkscape:connector-curvature="0"
         sodipodi:nodetypes="cczcccczzczczzzzzcccc" />
    </g>
    <g
       transform="translate(-98.65743,607.07434)"
       id="g4422">
      <path
         style="fill:#000000;fill-rule:evenodd;stroke:#ffffff;stroke-width:4;stroke-linecap:butt;stroke-linejoin:miter;stroke-opacity:1"
         d="m 644.73421,253.89626 c 0,0 -2.17956,41.61057 0.79349,65.0661 2.97306,23.45553 18.25025,74.58796 18.25025,74.58796 0,0 8.69692,-59.91291 11.90234,-80.93588 3.20541,-21.02296 7.1414,-45.22887 7.1414,-45.22887 0,0 11.54894,33.55012 27.77212,49.98981 16.22317,16.43968 70.62051,40.46794 70.62051,40.46794 0,0 -40.82077,-36.80687 -52.37027,-55.54423 -11.5495,-18.73736 -19.04373,-52.37028 -19.04373,-52.37028 l -38.88097,-32.53305 z"
         id="path4424"
         inkscape:connector-curvature="0"
         sodipodi:nodetypes="czczczczccc" />
      <path
         style="fill:#000000;fill-opacity:1;fill-rule:evenodd;stroke:#ffffff;stroke-width:4;stroke-linecap:butt;stroke-linejoin:miter;stroke-opacity:1"
         d="m 650.6139,148.08356 c 0,0 12.59394,-18.86539 10.96345,-24.53624 -1.63049,-5.67085 -10.195,-4.65824 -13.9269,-9.94779 -3.7319,-5.28955 -6.29046,-14.599 -5.96867,-20.89035 0.32179,-6.29135 1.34962,-10.56635 5.96867,-14.92168 4.61905,-4.35533 13.76885,-7.7745 20.89035,-6.96345 7.1215,0.81105 13.29081,5.38597 17.90602,10.94256 4.61521,5.55659 8.46871,13.76885 7.95823,20.89035 -0.51048,7.1215 -6.69479,13.87947 -9.94779,17.90602 -3.253,4.02655 -6.53049,3.11244 -7.95823,6.96345 -1.42774,3.85101 5.36456,20.8019 5.36456,20.8019 z"
         id="path4426"
         inkscape:connector-curvature="0"
         sodipodi:nodetypes="czzzzzzzzzcc" />
      <path
         style="fill:#000000;fill-opacity:1;fill-rule:evenodd;stroke:#ffffff;stroke-width:4;stroke-linecap:butt;stroke-linejoin:miter;stroke-opacity:1"
         d="m 629.01318,136.81869 c 0,0 -5.55362,-31.47672 -6.96345,-44.76505 -1.40983,-13.28833 1.24992,-27.58723 -1.98956,-34.81725 -3.23948,-7.23002 -4.37932,-9.06185 -8.95301,-8.95301 -4.57369,0.10884 -6.93894,2.52485 -9.94778,10.94257 -3.00884,8.41772 -0.57653,23.72494 1.98955,38.79637 2.56608,15.07143 14.92168,50.73371 14.92168,50.73371 l 3.97912,6.96345 z"
         id="path4428"
         inkscape:connector-curvature="0"
         sodipodi:nodetypes="czzzzzccc" />
      <path
         style="fill:#000000;fill-opacity:1;fill-rule:evenodd;stroke:#ffffff;stroke-width:4;stroke-linecap:butt;stroke-linejoin:miter;stroke-opacity:1"
         d="m 717.54849,172.63072 c 0,0 3.22286,18.05576 3.97911,24.86947 0.75625,6.81371 1.2348,11.24771 0.99478,15.91646 -0.24002,4.66875 -0.14928,8.6362 -1.98956,11.93734 -1.84028,3.30114 -7.95823,6.96345 -7.95823,6.96345 l -9.94778,-50.73371 z"
         id="path4430"
         inkscape:connector-curvature="0"
         sodipodi:nodetypes="czzzccc" />
      <path
         style="fill:#000000;fill-rule:nonzero;stroke:#ffffff;stroke-width:4;stroke-linecap:butt;stroke-linejoin:miter;stroke-opacity:1"
         d="m 698.66856,145.59164 c -5.50598,-2.10566 -16.58227,-8.28372 -21.92419,-11.83864 0,0 -4.32673,9.72301 -8.89135,9.60646 -4.56462,-0.11655 -9.42167,-7.26335 -9.42167,-7.26335 -3.97147,3.26974 -6.39489,4.29312 -8.44995,9.10429 -2.05506,4.81117 -7.65912,1.52147 -7.63499,1.46718 0,0 -4.61532,-3.3833 -8.72389,-9.81234 -4.10857,-6.42904 -3.61456,-14.95823 -3.61456,-14.95823 l -20.89036,8.953 c 0,0 2.68853,12.91597 4.9739,17.90602 2.28537,4.99005 5.30291,7.79312 7.95823,11.93735 2.65532,4.14423 5.67095,6.27952 7.95823,12.93212 2.28728,6.6526 1.45665,12.27237 2.98433,26.85903 1.52768,14.58666 5.96868,60.6815 5.96868,60.6815 0,0 26.64191,-0.15828 39.79115,-1.98956 13.14924,-1.83128 38.79637,-8.95301 38.79637,-8.95301 0,0 -9.92984,-62.89466 -13.92691,-81.57185 l 0.99478,16.91123 14.92168,-7.95823 c 0,0 -0.97357,-14.86506 -4.97389,-21.88513 -4.00032,-7.02007 -10.38961,-8.02218 -15.89559,-10.12784 z"
         id="path4432"
         inkscape:connector-curvature="0"
         sodipodi:nodetypes="zczczczcczzzzczcccczz" />
      <path
         inkscape:connector-curvature="0"
         style="opacity:1;fill:#000000;fill-opacity:1;fill-rule:nonzero;stroke:#ffffff;stroke-width:4;stroke-linecap:round;stroke-linejoin:round;stroke-miterlimit:4;stroke-dasharray:none;stroke-dashoffset:0;stroke-opacity:1"
         d="m 610.59961,40.324219 a 10.445177,13.926902 0 0 0 -10.44531,13.927734 10.445177,13.926902 0 0 0 10.44531,13.927735 10.445177,13.926902 0 0 0 6.08984,-2.634766 3.979115,9.9477873 55.669783 0 0 6.60938,-3.033203 3.979115,9.9477873 55.669783 0 0 5.9707,-8.896485 3.979115,9.9477873 55.669783 0 0 -8.23828,0.980469 10.445177,13.926902 0 0 0 0.0137,-0.34375 10.445177,13.926902 0 0 0 -10.44531,-13.927734 z"
         id="path4434" />
    </g>
    <g
       transform="translate(-198.65743,607.07434)"
       id="g4436">
      <path
         style="fill:#000000;fill-rule:evenodd;stroke:#ffffff;stroke-width:4;stroke-linecap:butt;stroke-linejoin:miter;stroke-opacity:1"
         d="m 445.13264,195.51529 c 0,0 -1.15378,6.88303 1.33674,22.05612 2.49052,15.17309 13.89707,27.56655 14.03571,26.73469 l -4.67857,-51.46428 z"
         id="path4438"
         inkscape:connector-curvature="0"
         sodipodi:nodetypes="czccc" />
      <path
         sodipodi:nodetypes="czczczczccc"
         inkscape:connector-curvature="0"
         id="path4440"
         d="m 468.73421,253.89626 c 0,0 -2.17956,41.61057 0.79349,65.0661 2.97306,23.45553 18.25025,74.58796 18.25025,74.58796 0,0 8.69692,-59.91291 11.90234,-80.93588 3.20541,-21.02296 7.1414,-45.22887 7.1414,-45.22887 0,0 11.54894,33.55012 27.77212,49.98981 16.22317,16.43968 70.62051,40.46794 70.62051,40.46794 0,0 -40.82077,-36.80687 -52.37027,-55.54423 -11.5495,-18.73736 -19.04373,-52.37028 -19.04373,-52.37028 l -38.88097,-32.53305 z"
         style="fill:#000000;fill-rule:evenodd;stroke:#ffffff;stroke-width:4;stroke-linecap:butt;stroke-linejoin:miter;stroke-opacity:1" />
      <path
         sodipodi:nodetypes="czzzzzzzzzcc"
         inkscape:connector-curvature="0"
         id="path4442"
         d="m 474.6139,148.08356 c 0,0 12.59394,-18.86539 10.96345,-24.53624 -1.63049,-5.67085 -10.195,-4.65824 -13.9269,-9.94779 -3.7319,-5.28955 -6.29046,-14.599 -5.96867,-20.89035 0.32179,-6.29135 1.34962,-10.56635 5.96867,-14.92168 4.61905,-4.35533 13.76885,-7.7745 20.89035,-6.96345 7.1215,0.81105 13.29081,5.38597 17.90602,10.94256 4.61521,5.55659 8.46871,13.76885 7.95823,20.89035 -0.51048,7.1215 -6.69479,13.87947 -9.94779,17.90602 -3.253,4.02655 -6.53049,3.11244 -7.95823,6.96345 -1.42774,3.85101 5.36456,20.8019 5.36456,20.8019 z"
         style="fill:#000000;fill-opacity:1;fill-rule:evenodd;stroke:#ffffff;stroke-width:4;stroke-linecap:butt;stroke-linejoin:miter;stroke-opacity:1" />
      <path
         sodipodi:nodetypes="czzzccc"
         inkscape:connector-curvature="0"
         id="path4444"
         d="m 541.54849,172.63072 c 0,0 3.22286,18.05576 3.97911,24.86947 0.75625,6.81371 1.2348,11.24771 0.99478,15.91646 -0.24002,4.66875 -0.14928,8.6362 -1.98956,11.93734 -1.84028,3.30114 -7.95823,6.96345 -7.95823,6.96345 l -9.94778,-50.73371 z"
         style="fill:#000000;fill-opacity:1;fill-rule:evenodd;stroke:#ffffff;stroke-width:4;stroke-linecap:butt;stroke-linejoin:miter;stroke-opacity:1" />
      <path
         sodipodi:nodetypes="cczcccczzczczzzzzcccc"
         inkscape:connector-curvature="0"
         id="path4446"
         d="m 456.99229,200.48453 c 1.52768,14.58666 5.96868,60.6815 5.96868,60.6815 0,0 26.64191,-0.15828 39.79115,-1.98956 13.14924,-1.83128 38.79637,-8.95301 38.79637,-8.95301 0,0 -9.92984,-62.89466 -13.92691,-81.57185 l 0.99478,16.91123 14.92168,-7.95823 c 0,0 -0.97357,-14.86506 -4.97389,-21.88513 -4.00032,-7.02007 -10.38961,-8.02218 -15.89559,-10.12784 -5.50598,-2.10566 -16.58227,-8.28372 -21.92419,-11.83864 0,0 -4.32673,9.72301 -8.89135,9.60646 -4.56462,-0.11655 -9.42167,-7.26335 -9.42167,-7.26335 -3.97147,3.26974 -7.42242,6.6987 -8.44995,9.10429 -1.02753,2.40558 -8.18834,4.12584 -12.13957,6.87101 -3.95123,2.74517 -8.08676,6.11947 -11.36225,8.68878 -3.27549,2.56931 -3.85342,3.9909 -5.34694,7.35203 -1.49352,3.36113 -2.17261,7.88862 -2.67347,12.69898 -0.50086,4.81036 0,16.04082 0,16.04082 l 10.69388,2.67347 0.66837,-22.72449 z"
         style="fill:#000000;fill-rule:nonzero;stroke:#ffffff;stroke-width:4;stroke-linecap:butt;stroke-linejoin:miter;stroke-opacity:1" />
    </g>
    <g
       transform="translate(-64.65743,607.07434)"
       id="g4450">
      <path
         style="fill:#000000;fill-rule:evenodd;stroke:#ffffff;stroke-width:4;stroke-linecap:butt;stroke-linejoin:miter;stroke-opacity:1"
         d="m 445.13264,195.51529 c 0,0 -1.15378,6.88303 1.33674,22.05612 2.49052,15.17309 13.89707,27.56655 14.03571,26.73469 l -4.67857,-51.46428 z"
         id="path4452"
         inkscape:connector-curvature="0"
         sodipodi:nodetypes="czccc" />
      <path
         sodipodi:nodetypes="czczczczccc"
         inkscape:connector-curvature="0"
         id="path4454"
         d="m 468.73421,253.89626 c 0,0 -2.17956,41.61057 0.79349,65.0661 2.97306,23.45553 18.25025,74.58796 18.25025,74.58796 0,0 8.69692,-59.91291 11.90234,-80.93588 3.20541,-21.02296 7.1414,-45.22887 7.1414,-45.22887 0,0 11.54894,33.55012 27.77212,49.98981 16.22317,16.43968 70.62051,40.46794 70.62051,40.46794 0,0 -40.82077,-36.80687 -52.37027,-55.54423 -11.5495,-18.73736 -19.04373,-52.37028 -19.04373,-52.37028 l -38.88097,-32.53305 z"
         style="fill:#000000;fill-rule:evenodd;stroke:#ffffff;stroke-width:4;stroke-linecap:butt;stroke-linejoin:miter;stroke-opacity:1" />
      <path
         sodipodi:nodetypes="czzzzzzzzzcc"
         inkscape:connector-curvature="0"
         id="path4456"
         d="m 474.6139,148.08356 c 0,0 12.59394,-18.86539 10.96345,-24.53624 -1.63049,-5.67085 -10.195,-4.65824 -13.9269,-9.94779 -3.7319,-5.28955 -6.29046,-14.599 -5.96867,-20.89035 0.32179,-6.29135 1.34962,-10.56635 5.96867,-14.92168 4.61905,-4.35533 13.76885,-7.7745 20.89035,-6.96345 7.1215,0.81105 13.29081,5.38597 17.90602,10.94256 4.61521,5.55659 8.46871,13.76885 7.95823,20.89035 -0.51048,7.1215 -6.69479,13.87947 -9.94779,17.90602 -3.253,4.02655 -6.53049,3.11244 -7.95823,6.96345 -1.42774,3.85101 5.36456,20.8019 5.36456,20.8019 z"
         style="fill:#000000;fill-opacity:1;fill-rule:evenodd;stroke:#ffffff;stroke-width:4;stroke-linecap:butt;stroke-linejoin:miter;stroke-opacity:1" />
      <path
         sodipodi:nodetypes="czzzccc"
         inkscape:connector-curvature="0"
         id="path4458"
         d="m 541.54849,172.63072 c 0,0 3.22286,18.05576 3.97911,24.86947 0.75625,6.81371 1.2348,11.24771 0.99478,15.91646 -0.24002,4.66875 -0.14928,8.6362 -1.98956,11.93734 -1.84028,3.30114 -7.95823,6.96345 -7.95823,6.96345 l -9.94778,-50.73371 z"
         style="fill:#000000;fill-opacity:1;fill-rule:evenodd;stroke:#ffffff;stroke-width:4;stroke-linecap:butt;stroke-linejoin:miter;stroke-opacity:1" />
      <path
         sodipodi:nodetypes="cczcccczzczczzzzzcccc"
         inkscape:connector-curvature="0"
         id="path4460"
         d="m 456.99229,200.48453 c 1.52768,14.58666 5.96868,60.6815 5.96868,60.6815 0,0 26.64191,-0.15828 39.79115,-1.98956 13.14924,-1.83128 38.79637,-8.95301 38.79637,-8.95301 0,0 -9.92984,-62.89466 -13.92691,-81.57185 l 0.99478,16.91123 14.92168,-7.95823 c 0,0 -0.97357,-14.86506 -4.97389,-21.88513 -4.00032,-7.02007 -10.38961,-8.02218 -15.89559,-10.12784 -5.50598,-2.10566 -16.58227,-8.28372 -21.92419,-11.83864 0,0 -4.32673,9.72301 -8.89135,9.60646 -4.56462,-0.11655 -9.42167,-7.26335 -9.42167,-7.26335 -3.97147,3.26974 -7.42242,6.6987 -8.44995,9.10429 -1.02753,2.40558 -8.18834,4.12584 -12.13957,6.87101 -3.95123,2.74517 -8.08676,6.11947 -11.36225,8.68878 -3.27549,2.56931 -3.85342,3.9909 -5.34694,7.35203 -1.49352,3.36113 -2.17261,7.88862 -2.67347,12.69898 -0.50086,4.81036 0,16.04082 0,16.04082 l 10.69388,2.67347 0.66837,-22.72449 z"
         style="fill:#000000;fill-rule:nonzero;stroke:#ffffff;stroke-width:4;stroke-linecap:butt;stroke-linejoin:miter;stroke-opacity:1" />
    </g>
    <g
       id="g4462"
       transform="translate(215.34257,607.07434)">
      <path
         sodipodi:nodetypes="czccc"
         inkscape:connector-curvature="0"
         id="path4464"
         d="m 445.13264,195.51529 c 0,0 -1.15378,6.88303 1.33674,22.05612 2.49052,15.17309 13.89707,27.56655 14.03571,26.73469 l -4.67857,-51.46428 z"
         style="fill:#000000;fill-rule:evenodd;stroke:#ffffff;stroke-width:4;stroke-linecap:butt;stroke-linejoin:miter;stroke-opacity:1" />
      <path
         style="fill:#000000;fill-rule:evenodd;stroke:#ffffff;stroke-width:4;stroke-linecap:butt;stroke-linejoin:miter;stroke-opacity:1"
         d="m 468.73421,253.89626 c 0,0 -2.17956,41.61057 0.79349,65.0661 2.97306,23.45553 18.25025,74.58796 18.25025,74.58796 0,0 8.69692,-59.91291 11.90234,-80.93588 3.20541,-21.02296 7.1414,-45.22887 7.1414,-45.22887 0,0 11.54894,33.55012 27.77212,49.98981 16.22317,16.43968 70.62051,40.46794 70.62051,40.46794 0,0 -40.82077,-36.80687 -52.37027,-55.54423 -11.5495,-18.73736 -19.04373,-52.37028 -19.04373,-52.37028 l -38.88097,-32.53305 z"
         id="path4466"
         inkscape:connector-curvature="0"
         sodipodi:nodetypes="czczczczccc" />
      <path
         style="fill:#000000;fill-opacity:1;fill-rule:evenodd;stroke:#ffffff;stroke-width:4;stroke-linecap:butt;stroke-linejoin:miter;stroke-opacity:1"
         d="m 474.6139,148.08356 c 0,0 12.59394,-18.86539 10.96345,-24.53624 -1.63049,-5.67085 -10.195,-4.65824 -13.9269,-9.94779 -3.7319,-5.28955 -6.29046,-14.599 -5.96867,-20.89035 0.32179,-6.29135 1.34962,-10.56635 5.96867,-14.92168 4.61905,-4.35533 13.76885,-7.7745 20.89035,-6.96345 7.1215,0.81105 13.29081,5.38597 17.90602,10.94256 4.61521,5.55659 8.46871,13.76885 7.95823,20.89035 -0.51048,7.1215 -6.69479,13.87947 -9.94779,17.90602 -3.253,4.02655 -6.53049,3.11244 -7.95823,6.96345 -1.42774,3.85101 5.36456,20.8019 5.36456,20.8019 z"
         id="path4468"
         inkscape:connector-curvature="0"
         sodipodi:nodetypes="czzzzzzzzzcc" />
      <path
         style="fill:#000000;fill-opacity:1;fill-rule:evenodd;stroke:#ffffff;stroke-width:4;stroke-linecap:butt;stroke-linejoin:miter;stroke-opacity:1"
         d="m 541.54849,172.63072 c 0,0 3.22286,18.05576 3.97911,24.86947 0.75625,6.81371 1.2348,11.24771 0.99478,15.91646 -0.24002,4.66875 -0.14928,8.6362 -1.98956,11.93734 -1.84028,3.30114 -7.95823,6.96345 -7.95823,6.96345 l -9.94778,-50.73371 z"
         id="path4470"
         inkscape:connector-curvature="0"
         sodipodi:nodetypes="czzzccc" />
      <path
         style="fill:#000000;fill-rule:nonzero;stroke:#ffffff;stroke-width:4;stroke-linecap:butt;stroke-linejoin:miter;stroke-opacity:1"
         d="m 456.99229,200.48453 c 1.52768,14.58666 5.96868,60.6815 5.96868,60.6815 0,0 26.64191,-0.15828 39.79115,-1.98956 13.14924,-1.83128 38.79637,-8.95301 38.79637,-8.95301 0,0 -9.92984,-62.89466 -13.92691,-81.57185 l 0.99478,16.91123 14.92168,-7.95823 c 0,0 -0.97357,-14.86506 -4.97389,-21.88513 -4.00032,-7.02007 -10.38961,-8.02218 -15.89559,-10.12784 -5.50598,-2.10566 -16.58227,-8.28372 -21.92419,-11.83864 0,0 -4.32673,9.72301 -8.89135,9.60646 -4.56462,-0.11655 -9.42167,-7.26335 -9.42167,-7.26335 -3.97147,3.26974 -7.42242,6.6987 -8.44995,9.10429 -1.02753,2.40558 -8.18834,4.12584 -12.13957,6.87101 -3.95123,2.74517 -8.08676,6.11947 -11.36225,8.68878 -3.27549,2.56931 -3.85342,3.9909 -5.34694,7.35203 -1.49352,3.36113 -2.17261,7.88862 -2.67347,12.69898 -0.50086,4.81036 0,16.04082 0,16.04082 l 10.69388,2.67347 0.66837,-22.72449 z"
         id="path4472"
         inkscape:connector-curvature="0"
         sodipodi:nodetypes="cczcccczzczczzzzzcccc" />
    </g>
    <g
       transform="translate(194,-15.123422)"
       id="g4536" />
  </g>
</svg>
