<?xml version="1.0" encoding="UTF-8" standalone="no"?>
<!-- Created with Inkscape (http://www.inkscape.org/) -->

<svg
   xmlns:dc="http://purl.org/dc/elements/1.1/"
   xmlns:cc="http://creativecommons.org/ns#"
   xmlns:rdf="http://www.w3.org/1999/02/22-rdf-syntax-ns#"
   xmlns:svg="http://www.w3.org/2000/svg"
   xmlns="http://www.w3.org/2000/svg"
   xmlns:sodipodi="http://sodipodi.sourceforge.net/DTD/sodipodi-0.dtd"
   xmlns:inkscape="http://www.inkscape.org/namespaces/inkscape"
   width="240mm"
   height="80mm"
   viewBox="0 0 850.3937 283.46456"
   id="svg2"
   version="1.1"
   inkscape:version="0.91 r13725"
   sodipodi:docname="10.svg">
  <defs
     id="defs4" />
  <sodipodi:namedview
     id="base"
     pagecolor="#ffffff"
     bordercolor="#666666"
     borderopacity="1.0"
     inkscape:pageopacity="0.0"
     inkscape:pageshadow="2"
     inkscape:zoom="1.3786356"
     inkscape:cx="432.06749"
     inkscape:cy="211.61731"
     inkscape:document-units="px"
     inkscape:current-layer="layer1"
     showgrid="false"
     showguides="true"
     fit-margin-top="0"
     fit-margin-left="0"
     fit-margin-right="0"
     fit-margin-bottom="0"
     inkscape:window-width="1280"
     inkscape:window-height="961"
     inkscape:window-x="-8"
     inkscape:window-y="-8"
     inkscape:window-maximized="1" />
  <metadata
     id="metadata7">
    <rdf:RDF>
      <cc:Work
         rdf:about="">
        <dc:format>image/svg+xml</dc:format>
        <dc:type
           rdf:resource="http://purl.org/dc/dcmitype/StillImage" />
        <dc:title></dc:title>
      </cc:Work>
    </rdf:RDF>
  </metadata>
  <g
     inkscape:label="Layer 1"
     inkscape:groupmode="layer"
     id="layer1"
     transform="translate(-10.983758,-598.9925)">
    <path
       style="fill:#000000;fill-rule:evenodd;stroke:none;stroke-width:1px;stroke-linecap:butt;stroke-linejoin:miter;stroke-opacity:1"
       d="m 180.43019,608.83364 c -20.6537,4.33362 -51.25459,12.49864 -66.09167,25.9342 -14.83709,13.43555 -22.71902,34.57892 -22.71902,43.22364 0,8.64474 8.47852,32.02843 4.13073,47.54603 -4.3478,15.51759 -22.64481,21.79119 -28.91511,38.90128 -6.27031,17.1101 -10.52322,45.40317 -4.13073,60.51312 6.39248,15.10994 13.9057,15.6221 28.91511,23.773 15.0094,8.1509 41.02249,16.60697 61.96095,19.45064 20.93846,2.84367 45.10206,6.11666 61.96094,-2.16119 16.85889,-8.27785 18.34326,-29.68238 33.04585,-38.90128 14.7026,-9.21888 27.8013,-17.48799 51.63411,-12.96709 23.83283,4.5209 46.86146,43.44728 76.41852,54.02956 29.55705,10.58228 58.49743,9.07631 95.00679,6.48355 36.50935,-2.59276 82.05571,-21.74179 121.85654,-25.93419 39.80082,-4.1924 85.36923,6.82539 115.66043,0 30.2912,-6.82539 48.01935,-11.53086 64.02632,-30.25656 16.00697,-18.7257 21.56959,-48.83899 22.71901,-73.48021 1.14943,-24.64121 -4.14336,-49.41967 -14.45755,-69.15783 -10.3142,-19.73817 -17.62298,-32.40039 -43.37267,-45.38484 -25.74968,-12.98445 -67.8094,-9.22065 -109.46434,-12.9671 -41.65494,-3.74645 -94.53855,-12.77306 -140.44482,-8.64473 -45.90627,4.12834 -98.28098,32.15412 -132.18335,32.41774 -33.90238,0.26362 -46.12061,-9.24781 -66.09169,-15.12827 -19.97109,-5.88046 -35.13354,-16.552 -53.69949,-19.45065 -18.56595,-2.89864 -35.11115,-2.17243 -55.76486,2.16118 z"
       id="path4558"
       inkscape:connector-curvature="0"
       sodipodi:nodetypes="zzzzzzzzzzzzzzzzzzzzzzzzz" />
    <ellipse
       ry="11.968354"
       rx="54.038937"
       cy="792.69971"
       cx="502.58771"
       id="ellipse5034"
       style="opacity:1;fill:#ffffff;fill-opacity:1;fill-rule:nonzero;stroke:none;stroke-width:4;stroke-linecap:round;stroke-linejoin:round;stroke-miterlimit:4;stroke-dasharray:none;stroke-dashoffset:0;stroke-opacity:1" />
    <circle
       style="opacity:1;fill:#000000;fill-opacity:1;fill-rule:nonzero;stroke:#ffffff;stroke-width:4;stroke-linecap:round;stroke-linejoin:round;stroke-miterlimit:4;stroke-dasharray:none;stroke-dashoffset:0;stroke-opacity:1"
       id="path5000"
       cx="499.51025"
       cy="723.96704"
       r="68.546028" />
    <g
       transform="translate(194,-15.123422)"
       id="g4536" />
    <path
       sodipodi:type="star"
       style="opacity:1;fill:#000000;fill-opacity:1;fill-rule:nonzero;stroke:#ffffff;stroke-width:4;stroke-linecap:round;stroke-linejoin:round;stroke-miterlimit:4;stroke-dasharray:none;stroke-dashoffset:0;stroke-opacity:1"
       id="path5002"
       sodipodi:sides="5"
       sodipodi:cx="502.04898"
       sodipodi:cy="726.5058"
       sodipodi:r1="26.847929"
       sodipodi:r2="14.304442"
       sodipodi:arg1="-0.78539816"
       sodipodi:arg2="-0.15707963"
       inkscape:flatsided="true"
       inkscape:rounded="0"
       inkscape:randomized="0"
       d="m 521.03333,707.52145 4.93733,31.17305 -28.12162,14.32868 -22.31745,-22.31744 14.32869,-28.12162 z" />
    <path
       style="opacity:1;fill:#000000;fill-opacity:1;fill-rule:nonzero;stroke:#ffffff;stroke-width:4;stroke-linecap:round;stroke-linejoin:round;stroke-miterlimit:4;stroke-dasharray:none;stroke-dashoffset:0;stroke-opacity:1"
       d="M 442.01758 74.705078 A 68.546028 68.546028 0 0 0 423.55664 103.30273 L 435.46875 125.75391 L 465.03906 126.8125 L 480.74023 101.73242 L 466.87109 75.595703 L 442.01758 74.705078 z "
       transform="translate(10.983758,598.9925)"
       id="circle5019" />
    <path
       style="opacity:1;fill:#000000;fill-opacity:1;fill-rule:nonzero;stroke:#ffffff;stroke-width:4;stroke-linecap:round;stroke-linejoin:round;stroke-miterlimit:4;stroke-dasharray:none;stroke-dashoffset:0;stroke-opacity:1"
       d="M 460.53711 133.67383 L 430.79688 146.73047 L 429.39062 159.4707 A 68.546028 68.546028 0 0 0 470.08008 190.92188 L 483.15039 185.18359 L 486.71289 152.90039 L 460.53711 133.67383 z "
       transform="translate(10.983758,598.9925)"
       id="path5027" />
    <ellipse
       style="opacity:1;fill:#ffffff;fill-opacity:1;fill-rule:nonzero;stroke:none;stroke-width:4;stroke-linecap:round;stroke-linejoin:round;stroke-miterlimit:4;stroke-dasharray:none;stroke-dashoffset:0;stroke-opacity:1"
       id="path5032"
       cx="419.17191"
       cy="810.83356"
       rx="54.038937"
       ry="11.968354" />
    <circle
       style="opacity:1;fill:#000000;fill-opacity:1;fill-rule:nonzero;stroke:#ffffff;stroke-width:4;stroke-linecap:round;stroke-linejoin:round;stroke-miterlimit:4;stroke-dasharray:none;stroke-dashoffset:0;stroke-opacity:1"
       id="path4990"
       cx="420.08389"
       cy="745.36499"
       r="71.08477" />
    <path
       style="fill:none;fill-rule:evenodd;stroke:#ffffff;stroke-width:4;stroke-linecap:butt;stroke-linejoin:miter;stroke-opacity:1"
       d="m 379.46401,687.33662 c 0,0 20.88165,34.2094 19.58458,54.40161 -1.29707,20.19221 -29.01419,56.57768 -29.01419,56.57768"
       id="path4992"
       inkscape:connector-curvature="0"
       sodipodi:nodetypes="czc" />
    <path
       sodipodi:nodetypes="czc"
       inkscape:connector-curvature="0"
       id="path4994"
       d="m 460.08846,687.33662 c 0,0 -20.88165,34.2094 -19.58458,54.40161 1.29707,20.19221 29.01419,56.57768 29.01419,56.57768"
       style="fill:none;fill-rule:evenodd;stroke:#ffffff;stroke-width:4;stroke-linecap:butt;stroke-linejoin:miter;stroke-opacity:1" />
    <path
       style="fill:none;fill-rule:evenodd;stroke:#ffffff;stroke-width:4;stroke-linecap:butt;stroke-linejoin:miter;stroke-opacity:1"
       d="m 420.08388,673.55488 -0.72535,142.8949"
       id="path4996"
       inkscape:connector-curvature="0" />
    <path
       inkscape:connector-curvature="0"
       id="path4998"
       d="m 491.16866,745.36501 -142.8949,-0.72535"
       style="fill:none;fill-rule:evenodd;stroke:#ffffff;stroke-width:4;stroke-linecap:butt;stroke-linejoin:miter;stroke-opacity:1" />
    <path
       style="opacity:1;fill:#000000;fill-opacity:1;fill-rule:nonzero;stroke:#ffffff;stroke-width:4;stroke-linecap:round;stroke-linejoin:round;stroke-miterlimit:4;stroke-dasharray:none;stroke-dashoffset:0;stroke-opacity:1"
       d="M 537.37109 85.576172 L 512.17969 106.95703 L 518.09961 139.46289 L 549.20898 150.58984 L 553.33203 147.08984 A 68.546028 68.546028 0 0 0 557.07227 124.97461 A 68.546028 68.546028 0 0 0 546.78125 88.941406 L 537.37109 85.576172 z "
       transform="translate(10.983758,598.9925)"
       id="path5004" />
    <path
       style="opacity:1;fill:#000000;fill-opacity:1;fill-rule:nonzero;stroke:#ffffff;stroke-width:4;stroke-linecap:round;stroke-linejoin:round;stroke-miterlimit:4;stroke-dasharray:none;stroke-dashoffset:0;stroke-opacity:1"
       d="M 488.52734 56.427734 A 68.546028 68.546028 0 0 0 482.10547 56.791016 L 470.67969 68.318359 L 479.38281 100.23438 L 511.375 108.6543 L 534.66211 85.158203 L 530.83984 71.144531 A 68.546028 68.546028 0 0 0 488.52734 56.427734 z "
       transform="translate(10.983758,598.9925)"
       id="path5012" />
    <path
       style="opacity:1;fill:#000000;fill-opacity:1;fill-rule:nonzero;stroke:#ffffff;stroke-width:4;stroke-linecap:round;stroke-linejoin:round;stroke-miterlimit:4;stroke-dasharray:none;stroke-dashoffset:0;stroke-opacity:1"
       d="M 515.00195 141.78906 L 490.30273 156.04883 L 490.30273 184.57031 L 502.98633 191.89258 A 68.546028 68.546028 0 0 0 539.70117 170.47656 L 539.70117 156.04883 L 515.00195 141.78906 z "
       transform="translate(10.983758,598.9925)"
       id="path5022" />
  </g>
</svg>
