<?xml version="1.0" encoding="UTF-8" standalone="no"?>
<!-- Created with Inkscape (http://www.inkscape.org/) -->

<svg
   xmlns:dc="http://purl.org/dc/elements/1.1/"
   xmlns:cc="http://creativecommons.org/ns#"
   xmlns:rdf="http://www.w3.org/1999/02/22-rdf-syntax-ns#"
   xmlns:svg="http://www.w3.org/2000/svg"
   xmlns="http://www.w3.org/2000/svg"
   xmlns:sodipodi="http://sodipodi.sourceforge.net/DTD/sodipodi-0.dtd"
   xmlns:inkscape="http://www.inkscape.org/namespaces/inkscape"
   width="240mm"
   height="80mm"
   viewBox="0 0 850.3937 283.46456"
   id="svg2"
   version="1.1"
   inkscape:version="0.91 r13725"
   sodipodi:docname="2.svg">
  <defs
     id="defs4" />
  <sodipodi:namedview
     id="base"
     pagecolor="#ffffff"
     bordercolor="#666666"
     borderopacity="1.0"
     inkscape:pageopacity="0.0"
     inkscape:pageshadow="2"
     inkscape:zoom="1"
     inkscape:cx="425.19685"
     inkscape:cy="101.73228"
     inkscape:document-units="px"
     inkscape:current-layer="layer1"
     showgrid="false"
     showguides="false"
     fit-margin-top="0"
     fit-margin-left="0"
     fit-margin-right="0"
     fit-margin-bottom="0"
     inkscape:window-width="1280"
     inkscape:window-height="961"
     inkscape:window-x="-8"
     inkscape:window-y="-8"
     inkscape:window-maximized="1">
    <sodipodi:guide
       position="738.76355,241.06455"
       orientation="1,0"
       id="guide4604" />
  </sodipodi:namedview>
  <metadata
     id="metadata7">
    <rdf:RDF>
      <cc:Work
         rdf:about="">
        <dc:format>image/svg+xml</dc:format>
        <dc:type
           rdf:resource="http://purl.org/dc/dcmitype/StillImage" />
        <dc:title></dc:title>
      </cc:Work>
    </rdf:RDF>
  </metadata>
  <g
     inkscape:label="Layer 1"
     inkscape:groupmode="layer"
     id="layer1"
     transform="translate(-10.983758,-598.9925)">
    <path
       style="fill:#000000;fill-rule:evenodd;stroke:none;stroke-width:1px;stroke-linecap:butt;stroke-linejoin:miter;stroke-opacity:1"
       d="m 180.43019,608.83364 c -20.6537,4.33362 -51.25459,12.49864 -66.09167,25.9342 -14.83709,13.43555 -22.71902,34.57892 -22.71902,43.22364 0,8.64474 8.47852,32.02843 4.13073,47.54603 -4.3478,15.51759 -22.64481,21.79119 -28.91511,38.90128 -6.27031,17.1101 -10.52322,45.40317 -4.13073,60.51312 6.39248,15.10994 13.9057,15.6221 28.91511,23.773 15.0094,8.1509 41.02249,16.60697 61.96095,19.45064 20.93846,2.84367 45.10206,6.11666 61.96094,-2.16119 16.85889,-8.27785 18.34326,-29.68238 33.04585,-38.90128 14.7026,-9.21888 27.8013,-17.48799 51.63411,-12.96709 23.83283,4.5209 46.86146,43.44728 76.41852,54.02956 29.55705,10.58228 58.49743,9.07631 95.00679,6.48355 36.50935,-2.59276 82.05571,-21.74179 121.85654,-25.93419 39.80082,-4.1924 85.36923,6.82539 115.66043,0 30.2912,-6.82539 48.01935,-11.53086 64.02632,-30.25656 16.00697,-18.7257 21.56959,-48.83899 22.71901,-73.48021 1.14943,-24.64121 -4.14336,-49.41967 -14.45755,-69.15783 -10.3142,-19.73817 -17.62298,-32.40039 -43.37267,-45.38484 -25.74968,-12.98445 -67.8094,-9.22065 -109.46434,-12.9671 -41.65494,-3.74645 -94.53855,-12.77306 -140.44482,-8.64473 -45.90627,4.12834 -98.28098,32.15412 -132.18335,32.41774 -33.90238,0.26362 -46.12061,-9.24781 -66.09169,-15.12827 -19.97109,-5.88046 -35.13354,-16.552 -53.69949,-19.45065 -18.56595,-2.89864 -35.11115,-2.17243 -55.76486,2.16118 z"
       id="path4558"
       inkscape:connector-curvature="0"
       sodipodi:nodetypes="zzzzzzzzzzzzzzzzzzzzzzzzz" />
    <g
       transform="translate(194,-15.123422)"
       id="g4536" />
    <path
       style="fill:#000000;fill-rule:evenodd;stroke:#ffffff;stroke-width:3.99999976;stroke-linecap:butt;stroke-linejoin:miter;stroke-opacity:1"
       d="m 448.76436,684.47767 c 0,0 23.88716,-16.96695 36.09184,-16.06117 12.20468,0.90576 32.08163,18.73803 32.08163,18.73803 0,0 -21.28123,8.35179 -32.75,8.03059 -11.46877,-0.32122 -35.42347,-10.70745 -35.42347,-10.70745 z"
       id="path4562"
       inkscape:connector-curvature="0"
       sodipodi:nodetypes="czczc" />
    <ellipse
       style="opacity:1;fill:#ffffff;fill-opacity:1;fill-rule:nonzero;stroke:none;stroke-width:4;stroke-linecap:round;stroke-linejoin:round;stroke-miterlimit:4;stroke-dasharray:none;stroke-dashoffset:0;stroke-opacity:1"
       id="path4564"
       cx="474.80301"
       cy="690.62292"
       rx="9.9927111"
       ry="4.6811223" />
    <path
       sodipodi:nodetypes="czczc"
       inkscape:connector-curvature="0"
       id="path4568"
       d="m 555.70313,687.72591 c 0,0 23.88716,-13.25626 36.09184,-12.54858 12.20468,0.70766 32.08163,14.64002 32.08163,14.64002 0,0 -21.28123,6.52525 -32.75,6.27429 -11.46877,-0.25096 -35.42347,-8.36573 -35.42347,-8.36573 z"
       style="fill:#000000;fill-rule:evenodd;stroke:#ffffff;stroke-width:4;stroke-linecap:butt;stroke-linejoin:miter;stroke-opacity:1" />
    <ellipse
       ry="5.6811223"
       rx="10.492711"
       cy="690.95966"
       cx="579.24176"
       id="ellipse4570"
       style="opacity:1;fill:#ffffff;fill-opacity:1;fill-rule:nonzero;stroke:none;stroke-width:4;stroke-linecap:round;stroke-linejoin:round;stroke-miterlimit:4;stroke-dasharray:none;stroke-dashoffset:0;stroke-opacity:1" />
    <path
       style="fill:none;fill-rule:evenodd;stroke:#ffffff;stroke-width:4;stroke-linecap:butt;stroke-linejoin:miter;stroke-opacity:1"
       d="m 442.74906,674.59483 c 0,0 -2.28438,59.35484 8.68877,88.22449 10.97315,28.86965 62.81122,77.19897 62.81122,77.19897 0,0 7.7901,6.79874 9.73471,12.43878 1.94461,5.64004 0,20 0,20"
       id="path4582"
       inkscape:connector-curvature="0"
       sodipodi:nodetypes="czczc" />
    <path
       style="fill:none;fill-rule:evenodd;stroke:#ffffff;stroke-width:4;stroke-linecap:butt;stroke-linejoin:miter;stroke-opacity:1"
       d="m 172.71042,795.13986 c 0,0 28.09336,-11.3892 59.98313,-34.92689 31.88976,-23.53768 52.39032,-48.59392 52.39032,-48.59392 0,0 12.90776,19.74128 56.18673,31.13048 43.27896,11.3892 72.89089,25.05625 82.76153,25.05625 9.87064,0 13.66704,-1.51856 13.66704,-1.51856 0,0 -10.62992,3.7964 -21.25984,14.42632 -10.62992,10.62992 -72.13161,69.85377 -72.13161,69.85377 0,0 -113.13273,-41.00113 -132.87402,-47.07537 -19.74128,-6.07424 -38.72328,-8.35208 -38.72328,-8.35208 z"
       id="path4584"
       inkscape:connector-curvature="0" />
    <path
       style="fill:none;fill-rule:evenodd;stroke:#ffffff;stroke-width:2;stroke-linecap:butt;stroke-linejoin:miter;stroke-opacity:1"
       d="m 290.39883,732.87889 -6.83352,-1.51856 2.27784,4.55568 -5.31496,0.75928 0.75928,6.07424 -6.07424,-3.03712 0.75928,5.31496 -6.07424,0"
       id="path4586"
       inkscape:connector-curvature="0" />
    <path
       style="fill:none;fill-rule:evenodd;stroke:#ffffff;stroke-width:2;stroke-linecap:butt;stroke-linejoin:miter;stroke-opacity:1"
       d="m 266.10187,748.06449 -15.94488,10.62992"
       id="path4588"
       inkscape:connector-curvature="0" />
    <path
       style="fill:none;fill-rule:evenodd;stroke:#ffffff;stroke-width:2;stroke-linecap:butt;stroke-linejoin:miter;stroke-opacity:1"
       d="m 301.02875,735.17504 -6.07424,3.53443 3.7964,5.76342 -9.11136,-2.29114 0,9.11136 -8.35208,-1.59403 0.75928,9.04919 -10.62992,0.11103 0.75928,9.80848 -9.87064,-0.71042 5.31496,4.87981 -11.3892,0.93247 3.03712,7.34414 -10.62992,-1.40754 0,9.11136 -9.87064,-1.4697 1.51856,7.46848 -12.14848,2.51319 3.03712,2.78846"
       id="path4590"
       inkscape:connector-curvature="0" />
    <path
       inkscape:connector-curvature="0"
       id="path4592"
       d="m 317.73291,741.24928 -6.07424,3.53443 3.7964,5.76342 -9.11136,-2.29114 0,9.11136 -8.35208,-1.59403 0.75928,9.04919 -10.62992,0.11103 0.75928,9.80848 -9.87064,-0.71042 5.31496,4.87981 -11.3892,0.93247 3.03712,7.34414 -10.62992,-1.40754 0,9.11136 -9.87064,-1.4697 1.51856,7.46848 -12.14848,2.51319 3.03712,2.78846"
       style="fill:none;fill-rule:evenodd;stroke:#ffffff;stroke-width:2;stroke-linecap:butt;stroke-linejoin:miter;stroke-opacity:1" />
    <path
       style="fill:none;fill-rule:evenodd;stroke:#ffffff;stroke-width:2;stroke-linecap:butt;stroke-linejoin:miter;stroke-opacity:1"
       d="m 332.15923,749.60136 -6.07424,3.53443 3.7964,5.76342 -9.11136,-2.29114 0,9.11136 -8.35208,-1.59403 0.75928,9.04919 -10.62992,0.11103 0.75928,9.80848 -9.87064,-0.71042 5.31496,4.87981 -11.3892,0.93247 3.03712,7.34414 -10.62992,-1.40754 0,9.11136 -9.87064,-1.4697 1.51856,7.46848 -12.14848,2.51319 3.03712,2.78846"
       id="path4594"
       inkscape:connector-curvature="0" />
    <path
       inkscape:connector-curvature="0"
       id="path4596"
       d="m 352.65979,752.63848 -6.07424,3.53443 3.7964,5.76342 -9.11136,-2.29114 0,9.11136 -8.35208,-1.59403 0.75928,9.04919 -10.62992,0.11103 0.75928,9.80848 -9.87064,-0.71042 5.31496,4.87981 -11.3892,0.93247 3.03712,7.34414 -10.62992,-1.40754 0,9.11136 -9.87064,-1.4697 1.51856,7.46848 -12.14848,2.51319 3.03712,2.78846"
       style="fill:none;fill-rule:evenodd;stroke:#ffffff;stroke-width:2;stroke-linecap:butt;stroke-linejoin:miter;stroke-opacity:1" />
    <path
       style="fill:none;fill-rule:evenodd;stroke:#ffffff;stroke-width:4;stroke-linecap:butt;stroke-linejoin:miter;stroke-opacity:1"
       d="m 507.98376,707.45707 13,17"
       id="path4606"
       inkscape:connector-curvature="0" />
    <path
       style="fill:#000000;fill-rule:evenodd;stroke:#ffffff;stroke-width:4;stroke-linecap:butt;stroke-linejoin:miter;stroke-opacity:1"
       d="m 526.96334,679.94177 c 0,0 -6.78746,9.76965 -9.35714,18.71428 -2.56968,8.94463 -6.34164,25.03829 -3.34184,34.7551 2.9998,9.71681 8.4292,17.5482 16.70918,20.05102 8.27998,2.50282 24.7296,-7.35204 24.7296,-7.35204"
       id="path4572"
       inkscape:connector-curvature="0"
       sodipodi:nodetypes="czzzc" />
    <path
       inkscape:connector-curvature="0"
       id="path4608"
       d="m 497.98376,707.45707 13,17"
       style="fill:none;fill-rule:evenodd;stroke:#ffffff;stroke-width:4;stroke-linecap:butt;stroke-linejoin:miter;stroke-opacity:1" />
    <path
       style="fill:none;fill-rule:evenodd;stroke:#ffffff;stroke-width:4;stroke-linecap:butt;stroke-linejoin:miter;stroke-opacity:1"
       d="m 485.98376,707.45707 13,17"
       id="path4610"
       inkscape:connector-curvature="0" />
    <path
       inkscape:connector-curvature="0"
       id="path4612"
       d="m 473.98376,707.45707 13,17"
       style="fill:none;fill-rule:evenodd;stroke:#ffffff;stroke-width:4;stroke-linecap:butt;stroke-linejoin:miter;stroke-opacity:1" />
    <path
       style="fill:none;fill-rule:evenodd;stroke:#ffffff;stroke-width:4;stroke-linecap:butt;stroke-linejoin:miter;stroke-opacity:1"
       d="m 463.98376,707.45707 13,17"
       id="path4614"
       inkscape:connector-curvature="0" />
    <path
       inkscape:connector-curvature="0"
       id="path4616"
       d="m 453.98376,707.45707 13,17"
       style="fill:none;fill-rule:evenodd;stroke:#ffffff;stroke-width:4;stroke-linecap:butt;stroke-linejoin:miter;stroke-opacity:1" />
    <path
       style="fill:none;fill-rule:evenodd;stroke:#ffffff;stroke-width:4;stroke-linecap:butt;stroke-linejoin:miter;stroke-opacity:1"
       d="m 613.98376,707.45707 13,17"
       id="path4618"
       inkscape:connector-curvature="0" />
    <path
       inkscape:connector-curvature="0"
       id="path4620"
       d="m 603.98376,707.45707 13,17"
       style="fill:none;fill-rule:evenodd;stroke:#ffffff;stroke-width:4;stroke-linecap:butt;stroke-linejoin:miter;stroke-opacity:1" />
    <path
       style="fill:none;fill-rule:evenodd;stroke:#ffffff;stroke-width:4;stroke-linecap:butt;stroke-linejoin:miter;stroke-opacity:1"
       d="m 593.98376,707.45707 13,17"
       id="path4622"
       inkscape:connector-curvature="0" />
    <path
       inkscape:connector-curvature="0"
       id="path4624"
       d="m 583.98376,707.45707 13,17"
       style="fill:none;fill-rule:evenodd;stroke:#ffffff;stroke-width:4;stroke-linecap:butt;stroke-linejoin:miter;stroke-opacity:1" />
    <path
       style="fill:none;fill-rule:evenodd;stroke:#ffffff;stroke-width:4;stroke-linecap:butt;stroke-linejoin:miter;stroke-opacity:1"
       d="m 573.98376,707.45707 13,17"
       id="path4626"
       inkscape:connector-curvature="0" />
    <path
       inkscape:connector-curvature="0"
       id="path4628"
       d="m 563.98376,707.45707 13,17"
       style="fill:none;fill-rule:evenodd;stroke:#ffffff;stroke-width:4;stroke-linecap:butt;stroke-linejoin:miter;stroke-opacity:1" />
    <path
       style="fill:none;fill-rule:evenodd;stroke:#ffffff;stroke-width:4;stroke-linecap:butt;stroke-linejoin:miter;stroke-opacity:1"
       d="m 551.98376,707.45707 13,17"
       id="path4630"
       inkscape:connector-curvature="0" />
    <path
       inkscape:connector-curvature="0"
       id="path4632"
       d="m 541.98376,707.45707 13,17"
       style="fill:none;fill-rule:evenodd;stroke:#ffffff;stroke-width:4;stroke-linecap:butt;stroke-linejoin:miter;stroke-opacity:1" />
  </g>
</svg>
