<?xml version="1.0" encoding="UTF-8" standalone="no"?>
<!-- Created with Inkscape (http://www.inkscape.org/) -->

<svg
   xmlns:dc="http://purl.org/dc/elements/1.1/"
   xmlns:cc="http://creativecommons.org/ns#"
   xmlns:rdf="http://www.w3.org/1999/02/22-rdf-syntax-ns#"
   xmlns:svg="http://www.w3.org/2000/svg"
   xmlns="http://www.w3.org/2000/svg"
   xmlns:sodipodi="http://sodipodi.sourceforge.net/DTD/sodipodi-0.dtd"
   xmlns:inkscape="http://www.inkscape.org/namespaces/inkscape"
   width="240mm"
   height="80mm"
   viewBox="0 0 850.3937 283.46456"
   id="svg2"
   version="1.1"
   inkscape:version="0.91 r13725"
   sodipodi:docname="3.svg">
  <defs
     id="defs4" />
  <sodipodi:namedview
     id="base"
     pagecolor="#ffffff"
     bordercolor="#666666"
     borderopacity="1.0"
     inkscape:pageopacity="0.0"
     inkscape:pageshadow="2"
     inkscape:zoom="1.4142136"
     inkscape:cx="404.40963"
     inkscape:cy="137.41897"
     inkscape:document-units="px"
     inkscape:current-layer="layer1"
     showgrid="false"
     showguides="false"
     fit-margin-top="0"
     fit-margin-left="0"
     fit-margin-right="0"
     fit-margin-bottom="0"
     inkscape:window-width="1280"
     inkscape:window-height="961"
     inkscape:window-x="-8"
     inkscape:window-y="-8"
     inkscape:window-maximized="1">
    <sodipodi:guide
       position="738.76355,241.06455"
       orientation="1,0"
       id="guide4604" />
  </sodipodi:namedview>
  <metadata
     id="metadata7">
    <rdf:RDF>
      <cc:Work
         rdf:about="">
        <dc:format>image/svg+xml</dc:format>
        <dc:type
           rdf:resource="http://purl.org/dc/dcmitype/StillImage" />
        <dc:title></dc:title>
      </cc:Work>
    </rdf:RDF>
  </metadata>
  <g
     inkscape:label="Layer 1"
     inkscape:groupmode="layer"
     id="layer1"
     transform="translate(-10.983758,-598.9925)">
    <path
       style="fill:#000000;fill-rule:evenodd;stroke:none;stroke-width:1px;stroke-linecap:butt;stroke-linejoin:miter;stroke-opacity:1"
       d="m 180.43019,608.83364 c -20.6537,4.33362 -51.25459,12.49864 -66.09167,25.9342 -14.83709,13.43555 -22.71902,34.57892 -22.71902,43.22364 0,8.64474 8.47852,32.02843 4.13073,47.54603 -4.3478,15.51759 -22.64481,21.79119 -28.91511,38.90128 -6.27031,17.1101 -10.52322,45.40317 -4.13073,60.51312 6.39248,15.10994 13.9057,15.6221 28.91511,23.773 15.0094,8.1509 41.02249,16.60697 61.96095,19.45064 20.93846,2.84367 45.10206,6.11666 61.96094,-2.16119 16.85889,-8.27785 18.34326,-29.68238 33.04585,-38.90128 14.7026,-9.21888 27.8013,-17.48799 51.63411,-12.96709 23.83283,4.5209 46.86146,43.44728 76.41852,54.02956 29.55705,10.58228 58.49743,9.07631 95.00679,6.48355 36.50935,-2.59276 82.05571,-21.74179 121.85654,-25.93419 39.80082,-4.1924 85.36923,6.82539 115.66043,0 30.2912,-6.82539 48.01935,-11.53086 64.02632,-30.25656 16.00697,-18.7257 21.56959,-48.83899 22.71901,-73.48021 1.14943,-24.64121 -4.14336,-49.41967 -14.45755,-69.15783 -10.3142,-19.73817 -17.62298,-32.40039 -43.37267,-45.38484 -25.74968,-12.98445 -67.8094,-9.22065 -109.46434,-12.9671 -41.65494,-3.74645 -94.53855,-12.77306 -140.44482,-8.64473 -45.90627,4.12834 -98.28098,32.15412 -132.18335,32.41774 -33.90238,0.26362 -46.12061,-9.24781 -66.09169,-15.12827 -19.97109,-5.88046 -35.13354,-16.552 -53.69949,-19.45065 -18.56595,-2.89864 -35.11115,-2.17243 -55.76486,2.16118 z"
       id="path4558"
       inkscape:connector-curvature="0"
       sodipodi:nodetypes="zzzzzzzzzzzzzzzzzzzzzzzzz" />
    <g
       transform="translate(194,-15.123422)"
       id="g4536" />
    <path
       style="fill:#000000;fill-rule:evenodd;stroke:#ffffff;stroke-width:4;stroke-linecap:butt;stroke-linejoin:miter;stroke-opacity:1"
       d="m 148.98376,782.45707 c 0,0 -2.7895,42.58426 -7,63 -4.2105,20.41574 -18,59 -18,59 0,0 29.61635,-40.10471 38,-59 8.38365,-18.89529 14,-52 14,-52 0,0 3.42148,47.69515 1,67 -2.42148,19.30485 -13,48 -13,48 0,0 29.42182,-29.75634 36,-51 6.57818,-21.24366 -1,-71 -1,-71 l -23,-33 z"
       id="path4636"
       inkscape:connector-curvature="0"
       sodipodi:nodetypes="czczczczccc" />
    <path
       style="fill:#000000;fill-rule:evenodd;stroke:#ffffff;stroke-width:4;stroke-linecap:butt;stroke-linejoin:miter;stroke-opacity:1"
       d="m 143.98376,724.45707 c -2.4822,5.35188 -3.25291,16.27925 -2,24 1.25291,7.72075 9,21 9,21 l 10,-42 -9,-11 c 0,0 -5.5178,2.64812 -8,8 z"
       id="path4640"
       inkscape:connector-curvature="0"
       sodipodi:nodetypes="zzcccz" />
    <path
       style="fill:#000000;fill-rule:evenodd;stroke:#ffffff;stroke-width:4;stroke-linecap:butt;stroke-linejoin:miter;stroke-opacity:1"
       d="m 222.98376,702.45707 59,-21 c 0,0 -4.83343,10.04645 -14,17 -9.16657,6.95355 -43,19 -43,19 z"
       id="path4642"
       inkscape:connector-curvature="0"
       sodipodi:nodetypes="cczcc" />
    <path
       style="fill:#000000;fill-rule:evenodd;stroke:#ffffff;stroke-width:4;stroke-linecap:butt;stroke-linejoin:miter;stroke-opacity:1"
       d="m 206.98376,792.45707 -2,-67 23,-5 -2,-21 c 0,0 -11.10745,6.97113 -17,6 -5.89255,-0.97113 -14,-11 -14,-11 l -16,1 -8,4 c 0,0 -8.52716,0.40274 -13,3 -4.47284,2.59726 -9.67664,8.92744 -12,13 -2.32336,4.07256 -3,10 -3,10 l 12,-2 c 0,0 -0.36363,11.77752 -2,22 -1.63637,10.22248 -9,39 -9,39 0,0 19.16669,10.58433 30,12 10.83331,1.41567 33,-4 33,-4 z"
       id="path4638"
       inkscape:connector-curvature="0"
       sodipodi:nodetypes="cccczccczzcczczc" />
    <path
       style="fill:#000000;fill-rule:evenodd;stroke:#ffffff;stroke-width:4;stroke-linecap:butt;stroke-linejoin:miter;stroke-opacity:1"
       d="m 165.48376,655.95707 c 0,0 -2.24797,4.03108 -2.5,7.75 -0.25203,3.71892 1.19685,10.06996 2.5,14 1.30315,3.93004 3.66601,6.21185 4.75,9.5 1.08399,3.28815 2.19756,6.67919 1.75,10 -0.44756,3.32081 -4.25,9 -4.25,9 l 4,-2.25 -2.75,3 c 0,0 3.38458,8.9e-4 5.5,-0.5 2.11542,-0.50089 3.9782,-2.46799 7,-2.75 3.0218,-0.28201 8.20303,1.01737 10.5,2 2.29697,0.98263 3.5,2.5 3.5,2.5 0,0 0.61985,-7.23965 0.5,-10.25 -0.11985,-3.01035 -1.39882,-3.73991 -1,-7.75 0.39882,-4.01009 4.30809,-10.31432 5.25,-15.5 0.94191,-5.18568 0.5,-14.25 0.5,-15.25 0,-1 -1.90474,-11.6152 -4.75,-14.25 -2.84526,-2.6348 -8,-2 -8,-2"
       id="path4646"
       inkscape:connector-curvature="0"
       sodipodi:nodetypes="czzzzccczzzczzzzzc" />
    <path
       style="fill:none;fill-rule:evenodd;stroke:#ffffff;stroke-width:4;stroke-linecap:butt;stroke-linejoin:miter;stroke-opacity:1"
       d="m 213.92341,868.31493 15.55635,-61.51829 36.76955,0 7.07107,62.93251"
       id="path4648"
       inkscape:connector-curvature="0" />
    <path
       style="fill:none;fill-rule:evenodd;stroke:#ffffff;stroke-width:4;stroke-linecap:butt;stroke-linejoin:miter;stroke-opacity:1"
       d="m 228.06554,797.60426 39.59798,0"
       id="path4650"
       inkscape:connector-curvature="0" />
    <rect
       style="opacity:1;fill:none;fill-opacity:1;fill-rule:nonzero;stroke:#ffffff;stroke-width:3;stroke-linecap:round;stroke-linejoin:round;stroke-miterlimit:4;stroke-dasharray:none;stroke-dashoffset:0;stroke-opacity:1"
       id="rect4652"
       width="38.890999"
       height="7.7781749"
       x="228.77267"
       y="782.04791" />
    <path
       style="fill:none;fill-rule:evenodd;stroke:#ffffff;stroke-width:1.5;stroke-linecap:butt;stroke-linejoin:miter;stroke-opacity:1"
       d="M 266.24931,782.04791 488.98794,617.29203 634.65195,872.55757 267.66352,789.11897"
       id="path4654"
       inkscape:connector-curvature="0"
       sodipodi:nodetypes="cccc" />
    <path
       style="fill:#ffffff;fill-rule:evenodd;stroke:none;stroke-width:1px;stroke-linecap:butt;stroke-linejoin:miter;stroke-opacity:1"
       d="m 487.57373,615.17071 140.00714,18.38477 5.65686,239.7092 -139.30004,-11.31371 z"
       id="path4656"
       inkscape:connector-curvature="0" />
    <g
       transform="matrix(1,0.52557261,0,1,0,0)"
       style="font-style:normal;font-weight:normal;font-size:40px;line-height:125%;font-family:sans-serif;letter-spacing:0px;word-spacing:0px;fill:#000000;fill-opacity:1;stroke:none;stroke-width:1px;stroke-linecap:butt;stroke-linejoin:miter;stroke-opacity:1"
       id="text4658">
      <path
         d="m 522.16226,394.18274 q 5.09766,-2.54883 10.3711,-4.39453 5.27343,-1.84571 10.89843,-2.90039 3.16407,-0.52735 6.50391,-0.87891 3.33984,-0.35156 6.67969,-0.35156 4.39453,0 8.61328,0.70312 4.30664,0.61524 8.52539,2.19727 8.26172,3.33984 13.27148,10.45898 5.09766,7.11914 5.09766,18.45703 0,8.34961 -2.72461,14.1504 -2.72461,5.71289 -7.73437,10.01953 -4.92188,4.30664 -12.04102,7.64648 -7.03125,3.25195 -15.73242,6.5918 l 0,21.00586 -12.2168,3.51562 -5.27344,-30.76172 q 9.31641,-4.04297 16.69922,-7.20703 7.38281,-3.16406 12.48047,-6.59179 5.18555,-3.51563 7.91016,-7.91016 2.8125,-4.48242 2.8125,-11.25 0,-5.00977 -2.02149,-8.52539 -1.93359,-3.51563 -5.18554,-5.625 -2.72461,-1.75781 -6.06446,-2.46094 -3.33984,-0.70312 -7.03125,-0.70312 -7.64648,0 -15.20508,2.46093 -7.4707,2.37305 -13.53515,5.53711 l -5.09766,-13.18359 z m 25.48828,100.10742 q 2.19727,0 4.13086,0.87891 2.02149,0.79101 3.42774,2.28515 1.49414,1.40625 2.28515,3.42774 0.87891,1.93359 0.87891,4.13086 0,2.10937 -0.87891,4.04297 -0.79101,1.93359 -2.28515,3.42773 -1.40625,1.49414 -3.42774,2.37305 -1.93359,0.8789 -4.13086,0.8789 -2.10937,0 -4.13086,-0.8789 -1.93359,-0.79102 -3.42773,-2.19727 -1.49414,-1.49414 -2.37305,-3.42773 -0.8789,-2.02149 -0.8789,-4.21875 0,-2.19727 0.8789,-4.13086 0.87891,-2.02149 2.28516,-3.42774 1.49414,-1.49414 3.42773,-2.28515 2.02149,-0.87891 4.21875,-0.87891 z"
         style="font-style:normal;font-variant:normal;font-weight:normal;font-stretch:normal;font-size:180px;font-family:Alef;-inkscape-font-specification:Alef"
         id="path4663" />
    </g>
  </g>
</svg>
