<?xml version="1.0" encoding="UTF-8" standalone="no"?>
<!-- Created with Inkscape (http://www.inkscape.org/) -->

<svg
   xmlns:dc="http://purl.org/dc/elements/1.1/"
   xmlns:cc="http://creativecommons.org/ns#"
   xmlns:rdf="http://www.w3.org/1999/02/22-rdf-syntax-ns#"
   xmlns:svg="http://www.w3.org/2000/svg"
   xmlns="http://www.w3.org/2000/svg"
   xmlns:sodipodi="http://sodipodi.sourceforge.net/DTD/sodipodi-0.dtd"
   xmlns:inkscape="http://www.inkscape.org/namespaces/inkscape"
   width="240mm"
   height="80mm"
   viewBox="0 0 850.3937 283.46456"
   id="svg2"
   version="1.1"
   inkscape:version="0.91 r13725"
   sodipodi:docname="4.svg">
  <defs
     id="defs4" />
  <sodipodi:namedview
     id="base"
     pagecolor="#ffffff"
     bordercolor="#666666"
     borderopacity="1.0"
     inkscape:pageopacity="0.0"
     inkscape:pageshadow="2"
     inkscape:zoom="1.317037"
     inkscape:cx="479.03949"
     inkscape:cy="131.57962"
     inkscape:document-units="px"
     inkscape:current-layer="layer1"
     showgrid="false"
     showguides="true"
     fit-margin-top="0"
     fit-margin-left="0"
     fit-margin-right="0"
     fit-margin-bottom="0"
     inkscape:window-width="1280"
     inkscape:window-height="961"
     inkscape:window-x="-8"
     inkscape:window-y="-8"
     inkscape:window-maximized="1" />
  <metadata
     id="metadata7">
    <rdf:RDF>
      <cc:Work
         rdf:about="">
        <dc:format>image/svg+xml</dc:format>
        <dc:type
           rdf:resource="http://purl.org/dc/dcmitype/StillImage" />
        <dc:title></dc:title>
      </cc:Work>
    </rdf:RDF>
  </metadata>
  <g
     inkscape:label="Layer 1"
     inkscape:groupmode="layer"
     id="layer1"
     transform="translate(-10.983758,-598.9925)">
    <path
       style="fill:#000000;fill-rule:evenodd;stroke:none;stroke-width:1px;stroke-linecap:butt;stroke-linejoin:miter;stroke-opacity:1"
       d="m 180.43019,608.83364 c -20.6537,4.33362 -51.25459,12.49864 -66.09167,25.9342 -14.83709,13.43555 -22.71902,34.57892 -22.71902,43.22364 0,8.64474 8.47852,32.02843 4.13073,47.54603 -4.3478,15.51759 -22.64481,21.79119 -28.91511,38.90128 -6.27031,17.1101 -10.52322,45.40317 -4.13073,60.51312 6.39248,15.10994 13.9057,15.6221 28.91511,23.773 15.0094,8.1509 41.02249,16.60697 61.96095,19.45064 20.93846,2.84367 45.10206,6.11666 61.96094,-2.16119 16.85889,-8.27785 18.34326,-29.68238 33.04585,-38.90128 14.7026,-9.21888 27.8013,-17.48799 51.63411,-12.96709 23.83283,4.5209 46.86146,43.44728 76.41852,54.02956 29.55705,10.58228 58.49743,9.07631 95.00679,6.48355 36.50935,-2.59276 82.05571,-21.74179 121.85654,-25.93419 39.80082,-4.1924 85.36923,6.82539 115.66043,0 30.2912,-6.82539 48.01935,-11.53086 64.02632,-30.25656 16.00697,-18.7257 21.56959,-48.83899 22.71901,-73.48021 1.14943,-24.64121 -4.14336,-49.41967 -14.45755,-69.15783 -10.3142,-19.73817 -17.62298,-32.40039 -43.37267,-45.38484 -25.74968,-12.98445 -67.8094,-9.22065 -109.46434,-12.9671 -41.65494,-3.74645 -94.53855,-12.77306 -140.44482,-8.64473 -45.90627,4.12834 -98.28098,32.15412 -132.18335,32.41774 -33.90238,0.26362 -46.12061,-9.24781 -66.09169,-15.12827 -19.97109,-5.88046 -35.13354,-16.552 -53.69949,-19.45065 -18.56595,-2.89864 -35.11115,-2.17243 -55.76486,2.16118 z"
       id="path4558"
       inkscape:connector-curvature="0"
       sodipodi:nodetypes="zzzzzzzzzzzzzzzzzzzzzzzzz" />
    <path
       style="fill:#000000;fill-rule:evenodd;stroke:#ffffff;stroke-width:4;stroke-linecap:butt;stroke-linejoin:round;stroke-opacity:1"
       d="m 465.65342,791.24029 22.62742,12.02082 89.09545,-33.94113 -34.64823,-9.8995 z"
       id="path4685"
       inkscape:connector-curvature="0" />
    <g
       transform="translate(194,-15.123422)"
       id="g4536" />
    <path
       style="fill:#000000;fill-rule:evenodd;stroke:#ffffff;stroke-width:4;stroke-linecap:round;stroke-linejoin:round;stroke-opacity:1"
       d="m 572.09175,714.65617 -1.51856,66.05737 33.53768,22.90776 24.29696,-6.07424 3.03712,-67.57593"
       id="path4727"
       inkscape:connector-curvature="0"
       sodipodi:nodetypes="ccccc" />
    <path
       style="fill:#000000;fill-rule:evenodd;stroke:#ffffff;stroke-width:4;stroke-linecap:round;stroke-linejoin:round;stroke-opacity:1"
       d="m 572.85103,713.89689 34.29696,22.90776 24.29696,-6.83352 -32.7784,-23.66704 z"
       id="path4725"
       inkscape:connector-curvature="0"
       sodipodi:nodetypes="ccccc" />
    <path
       style="fill:none;fill-rule:evenodd;stroke:#ffffff;stroke-width:4;stroke-linecap:butt;stroke-linejoin:round;stroke-opacity:1"
       d="m 491.81637,748.10678 -0.70711,67.17514 83.4386,-31.11269 2.12133,-54.44723 z"
       id="path4665"
       inkscape:connector-curvature="0" />
    <path
       style="fill:#000000;fill-rule:evenodd;stroke:#ffffff;stroke-width:4;stroke-linecap:butt;stroke-linejoin:round;stroke-opacity:1"
       d="m 503.83719,754.47074 0.7071,67.88225 83.4386,-31.1127 -1.41421,-56.56854 z"
       id="path4677"
       inkscape:connector-curvature="0"
       sodipodi:nodetypes="ccccc" />
    <path
       style="fill:#000000;fill-rule:evenodd;stroke:#ffffff;stroke-width:4;stroke-linecap:butt;stroke-linejoin:round;stroke-opacity:1"
       d="m 491.81637,749.52099 12.02082,6.36397 1.41421,66.46803 -13.43503,-5.65685 z"
       id="path4679"
       inkscape:connector-curvature="0"
       sodipodi:nodetypes="ccccc" />
    <path
       style="fill:#000000;fill-rule:evenodd;stroke:#ffffff;stroke-width:4;stroke-linecap:butt;stroke-linejoin:round;stroke-opacity:1"
       d="m 493.23058,748.10678 9.8995,7.77818 83.4386,-21.92032 -9.89949,-4.94974 z"
       id="path4681"
       inkscape:connector-curvature="0"
       sodipodi:nodetypes="ccccc" />
    <path
       style="fill:#000000;fill-rule:evenodd;stroke:#ffffff;stroke-width:4;stroke-linecap:butt;stroke-linejoin:miter;stroke-opacity:1"
       d="m 449.38996,802.55401 c 3.11286,-3.81851 13.40635,-2.05324 16.97056,1.41421 3.56421,3.46745 4.742,9.50251 1.41422,12.72792 -3.32778,3.22541 -11.37958,0.88104 -14.84924,-2.12132 -3.46966,-3.00236 -6.6484,-8.2023 -3.53554,-12.02081 z"
       id="path4687"
       inkscape:connector-curvature="0"
       sodipodi:nodetypes="zzzzz" />
    <path
       style="fill:none;fill-rule:evenodd;stroke:#ffffff;stroke-width:3;stroke-linecap:butt;stroke-linejoin:miter;stroke-opacity:1"
       d="m 457.16814,807.50375 7.77817,6.36396"
       id="path4689"
       inkscape:connector-curvature="0" />
    <path
       style="fill:none;fill-rule:evenodd;stroke:#ffffff;stroke-width:4;stroke-linecap:butt;stroke-linejoin:miter;stroke-opacity:1"
       d="M 570.30523,729.722 508.78694,590.42197"
       id="path4699"
       inkscape:connector-curvature="0"
       sodipodi:nodetypes="cc" />
    <path
       style="fill:none;fill-rule:evenodd;stroke:#ffffff;stroke-width:4;stroke-linecap:butt;stroke-linejoin:miter;stroke-opacity:1"
       d="M 532.82856,736.79308 421.10569,586.88643"
       id="path4701"
       inkscape:connector-curvature="0"
       sodipodi:nodetypes="cc" />
    <path
       style="fill:none;fill-rule:evenodd;stroke:#ffffff;stroke-width:4;stroke-linecap:butt;stroke-linejoin:miter;stroke-opacity:1"
       d="M 477.67424,786.29055 C 472.01738,784.16923 -66.090877,645.5763 -66.090877,645.5763"
       id="path4703"
       inkscape:connector-curvature="0"
       sodipodi:nodetypes="cc" />
    <path
       style="fill:#000000;fill-rule:evenodd;stroke:#ffffff;stroke-width:4;stroke-linecap:butt;stroke-linejoin:round;stroke-opacity:1"
       d="m 426.05544,776.39105 c 0,0 -0.6173,8.5828 3.53553,14.84924 4.15283,6.26644 24.04164,17.67767 24.04164,17.67767 l -12.02082,-13.43503 -7.77817,-21.2132 z"
       id="path4711"
       inkscape:connector-curvature="0"
       sodipodi:nodetypes="czcccc" />
    <path
       style="fill:none;fill-rule:evenodd;stroke:#ffffff;stroke-width:4;stroke-linecap:butt;stroke-linejoin:miter;stroke-opacity:1"
       d="M 489.69505,764.37023 64.723878,586.88644"
       id="path4705"
       inkscape:connector-curvature="0"
       sodipodi:nodetypes="cc" />
    <path
       style="fill:none;fill-rule:evenodd;stroke:#ffffff;stroke-width:4;stroke-linecap:butt;stroke-linejoin:miter;stroke-opacity:1"
       d="M 504.54429,745.27835 C 503.83719,742.44993 268.37063,586.88644 268.37063,586.88644"
       id="path4707"
       inkscape:connector-curvature="0"
       sodipodi:nodetypes="cc" />
    <path
       style="fill:#000000;fill-rule:evenodd;stroke:#ffffff;stroke-width:4;stroke-linecap:butt;stroke-linejoin:miter;stroke-opacity:1"
       d="m 431.00519,765.78446 c 0,0 4.14035,-19.32705 2.82842,-23.33453 -1.31193,-4.00748 -8.7445,-6.28117 -11.3137,-11.31371 -2.5692,-5.03254 -4.69221,-11.19832 -2.82843,-17.67767 1.86378,-6.47935 8.74381,-14.20011 14.84924,-16.97056 6.10543,-2.77045 12.9102,-1.64889 17.67767,0 4.76747,1.64889 8.10647,4.08908 9.8995,7.77817 1.79303,3.68909 0.64095,8.32047 0,12.02082 -0.64095,3.70035 -1.59839,6.16805 -3.53554,9.89949 -1.93715,3.73144 -7.41386,7.42482 -8.48528,12.02082 -1.07142,4.596 6.36396,25.45585 6.36396,25.45585"
       id="path4691"
       inkscape:connector-curvature="0"
       sodipodi:nodetypes="czzzzzzzzzc" />
    <path
       style="fill:#000000;fill-rule:evenodd;stroke:#ffffff;stroke-width:4;stroke-linecap:butt;stroke-linejoin:miter;stroke-opacity:1"
       d="m 467.77474,762.95602 c 0,0 0.87134,8.49769 4.24264,12.72793 3.3713,4.23024 16.26346,9.89949 16.26346,9.89949 0,0 -16.32593,2.69932 -21.92031,-1.41421 -5.59438,-4.11353 -7.07107,-18.38478 -7.07107,-18.38478 z"
       id="path4713"
       inkscape:connector-curvature="0"
       sodipodi:nodetypes="czczcc" />
    <path
       style="fill:#000000;fill-rule:evenodd;stroke:#ffffff;stroke-width:4;stroke-linecap:butt;stroke-linejoin:round;stroke-opacity:1"
       d="m 431.00519,747.39967 12.72792,9.19239 9.8995,-10.6066 c 0,0 7.25581,3.19344 9.89949,6.36396 2.64368,3.17052 4.94975,12.02082 4.94975,12.02082 l -8.48529,1.41421 4.94975,19.09188 -24.74873,9.8995 -4.94975,-20.50609 -10.6066,-10e-6 c 0,0 -1.90538,-3.05008 -1.41422,-7.77817 0.49116,-4.72809 7.77818,-19.09189 7.77818,-19.09189 z"
       id="path4709"
       inkscape:connector-curvature="0"
       sodipodi:nodetypes="ccczcccccczc" />
    <path
       style="fill:none;fill-rule:evenodd;stroke:#ffffff;stroke-width:4;stroke-linecap:butt;stroke-linejoin:miter;stroke-opacity:1"
       d="m 621.44495,784.50994 c 0,0 8.02138,7.62437 17.46344,8.35208 9.44206,0.72771 15.44554,3.59742 28.85265,4.55568 13.40711,0.95826 25.43191,-23.33358 37.964,-22.01912 12.53209,1.31446 12.33296,25.61954 23.53769,21.25984 11.20473,-4.3597 -4.71658,-36.32694 3.7964,-40.24185 8.51298,-3.91491 7.36016,10.00979 12.90776,9.11137 5.5476,-0.89842 11.15531,-8.68834 10.62992,-14.42633 -0.52539,-5.73799 -8.03157,-11.864 -12.14848,-11.3892 -4.11691,0.4748 -4.91981,3.15616 -4.55568,6.83352 0.36413,3.67736 5.99072,7.82414 9.87064,9.87064 3.87992,2.0465 6.42028,5.30763 12.14848,2.27784 5.7282,-3.02979 11.13862,-15.35503 10.62992,-24.29696 -0.5087,-8.94193 -7.1298,-17.08924 -13.66704,-23.53768 -6.53724,-6.44844 -16.05601,-9.61677 -24.29696,-13.66704 -8.24095,-4.05027 -20.80994,-4.50898 -25.05625,-10.62992 -4.24631,-6.12094 -4.14565,-13.51043 -0.75928,-17.46345 3.38637,-3.95302 9.5863,-3.34064 13.66704,-1.51856 4.08074,1.82208 7.33051,4.94269 7.59281,10.62992 0.2623,5.68723 -3.61603,13.68935 -10.62993,18.22273 -7.0139,4.53338 -20.96875,5.71504 -28.85264,3.03712 -7.88389,-2.67792 -12.29478,-8.01105 -15.1856,-14.42632 -2.89082,-6.41527 -3.75996,-14.58225 -0.75928,-21.25985 3.00068,-6.6776 12.37759,-9.05847 17.46344,-14.42632 5.08585,-5.36785 9.11151,-9.85371 12.90776,-17.46344 3.79625,-7.60973 7.56406,-20.32691 8.35208,-28.09336 0.78802,-7.76645 -1.51856,-17.46345 -1.51856,-17.46345"
       id="path4729"
       inkscape:connector-curvature="0"
       sodipodi:nodetypes="czzzzzzzzzzzzzzzzzzzzzzzzzc" />
  </g>
</svg>
