<?xml version="1.0" encoding="UTF-8" standalone="no"?>
<!-- Created with Inkscape (http://www.inkscape.org/) -->

<svg
   xmlns:dc="http://purl.org/dc/elements/1.1/"
   xmlns:cc="http://creativecommons.org/ns#"
   xmlns:rdf="http://www.w3.org/1999/02/22-rdf-syntax-ns#"
   xmlns:svg="http://www.w3.org/2000/svg"
   xmlns="http://www.w3.org/2000/svg"
   xmlns:sodipodi="http://sodipodi.sourceforge.net/DTD/sodipodi-0.dtd"
   xmlns:inkscape="http://www.inkscape.org/namespaces/inkscape"
   width="240mm"
   height="80mm"
   viewBox="0 0 850.3937 283.46456"
   id="svg2"
   version="1.1"
   inkscape:version="0.91 r13725"
   sodipodi:docname="6.svg">
  <defs
     id="defs4" />
  <sodipodi:namedview
     id="base"
     pagecolor="#ffffff"
     bordercolor="#666666"
     borderopacity="1.0"
     inkscape:pageopacity="0.0"
     inkscape:pageshadow="2"
     inkscape:zoom="1.317037"
     inkscape:cx="439.22498"
     inkscape:cy="145.44027"
     inkscape:document-units="px"
     inkscape:current-layer="layer1"
     showgrid="false"
     showguides="true"
     fit-margin-top="0"
     fit-margin-left="0"
     fit-margin-right="0"
     fit-margin-bottom="0"
     inkscape:window-width="1280"
     inkscape:window-height="961"
     inkscape:window-x="-8"
     inkscape:window-y="-8"
     inkscape:window-maximized="1" />
  <metadata
     id="metadata7">
    <rdf:RDF>
      <cc:Work
         rdf:about="">
        <dc:format>image/svg+xml</dc:format>
        <dc:type
           rdf:resource="http://purl.org/dc/dcmitype/StillImage" />
        <dc:title></dc:title>
      </cc:Work>
    </rdf:RDF>
  </metadata>
  <g
     inkscape:label="Layer 1"
     inkscape:groupmode="layer"
     id="layer1"
     transform="translate(-10.983758,-598.9925)">
    <path
       style="fill:#000000;fill-rule:evenodd;stroke:none;stroke-width:1px;stroke-linecap:butt;stroke-linejoin:miter;stroke-opacity:1"
       d="m 180.43019,608.83364 c -20.6537,4.33362 -51.25459,12.49864 -66.09167,25.9342 -14.83709,13.43555 -22.71902,34.57892 -22.71902,43.22364 0,8.64474 8.47852,32.02843 4.13073,47.54603 -4.3478,15.51759 -22.64481,21.79119 -28.91511,38.90128 -6.27031,17.1101 -10.52322,45.40317 -4.13073,60.51312 6.39248,15.10994 13.9057,15.6221 28.91511,23.773 15.0094,8.1509 41.02249,16.60697 61.96095,19.45064 20.93846,2.84367 45.10206,6.11666 61.96094,-2.16119 16.85889,-8.27785 18.34326,-29.68238 33.04585,-38.90128 14.7026,-9.21888 27.8013,-17.48799 51.63411,-12.96709 23.83283,4.5209 46.86146,43.44728 76.41852,54.02956 29.55705,10.58228 58.49743,9.07631 95.00679,6.48355 36.50935,-2.59276 82.05571,-21.74179 121.85654,-25.93419 39.80082,-4.1924 85.36923,6.82539 115.66043,0 30.2912,-6.82539 48.01935,-11.53086 64.02632,-30.25656 16.00697,-18.7257 21.56959,-48.83899 22.71901,-73.48021 1.14943,-24.64121 -4.14336,-49.41967 -14.45755,-69.15783 -10.3142,-19.73817 -17.62298,-32.40039 -43.37267,-45.38484 -25.74968,-12.98445 -67.8094,-9.22065 -109.46434,-12.9671 -41.65494,-3.74645 -94.53855,-12.77306 -140.44482,-8.64473 -45.90627,4.12834 -98.28098,32.15412 -132.18335,32.41774 -33.90238,0.26362 -46.12061,-9.24781 -66.09169,-15.12827 -19.97109,-5.88046 -35.13354,-16.552 -53.69949,-19.45065 -18.56595,-2.89864 -35.11115,-2.17243 -55.76486,2.16118 z"
       id="path4558"
       inkscape:connector-curvature="0"
       sodipodi:nodetypes="zzzzzzzzzzzzzzzzzzzzzzzzz" />
    <path
       sodipodi:type="star"
       style="opacity:1;fill:#000000;fill-opacity:1;fill-rule:nonzero;stroke:#ffffff;stroke-width:5.29249954;stroke-linecap:round;stroke-linejoin:round;stroke-miterlimit:4;stroke-dasharray:none;stroke-dashoffset:0;stroke-opacity:1"
       id="path4880"
       sodipodi:sides="10"
       sodipodi:cx="434.66205"
       sodipodi:cy="726.80469"
       sodipodi:r1="248.94061"
       sodipodi:r2="132.63443"
       sodipodi:arg1="-0.13227367"
       sodipodi:arg2="0.1189321"
       inkscape:flatsided="false"
       inkscape:rounded="0"
       inkscape:randomized="0"
       d="M 681.42806,693.97234 566.35954,742.54202 653.59832,845.28818 531.95738,816.9463 542.14236,951.34736 460.39172,856.91954 389.63258,971.63887 378.9982,847.19334 254.32252,898.41204 318.86637,791.48276 187.89603,759.63704 302.96456,711.06736 215.72578,608.32119 l 121.64093,28.34189 -10.18498,-134.40106 81.75065,94.42781 70.75914,-114.71932 10.63438,124.44553 124.67567,-51.21871 -64.54385,106.92928 z"
       inkscape:transform-center-x="-2.4559468"
       inkscape:transform-center-y="-8.8455885"
       transform="matrix(1,0,0,0.57121342,0,330.6261)" />
    <g
       transform="translate(194,-15.123422)"
       id="g4536" />
    <path
       style="fill:#000000;fill-rule:evenodd;stroke:#ffffff;stroke-width:4;stroke-linecap:butt;stroke-linejoin:miter;stroke-opacity:1"
       d="m 364.08566,679.46873 c 0,0 -3.83306,91.37417 -3.07378,94.41129 0.75928,3.03712 7.87022,12.14848 9.87064,12.14848 l 8.35208,0 c 10.31355,0 94.38067,6.36735 115.41058,0 21.02991,-6.36735 10.38361,-5.48912 13.66704,-9.11136 3.28343,-3.62224 1.83057,4.38345 6.07424,-11.3892 4.24367,-15.77265 2.50023,-83.4287 2.50023,-83.4287 z"
       id="path4827"
       inkscape:connector-curvature="0"
       sodipodi:nodetypes="czzzzzzcc" />
    <path
       style="fill:#000000;fill-rule:evenodd;stroke:#ffffff;stroke-width:4;stroke-linecap:butt;stroke-linejoin:miter;stroke-opacity:1"
       d="m 383.031,701.15673 c 0,0 -12.84027,-7.77324 -15.94488,-12.90776 -3.10461,-5.13452 -5.54895,-10.69721 -3.03712,-15.1856 2.51183,-4.48839 14.42632,-5.31496 14.42632,-5.31496 l 126.79978,0.75928 c 0,0 7.82644,4.02028 9.87064,7.5928 2.0442,3.57252 2.84154,7.79258 1.51856,12.14848 -1.32298,4.35591 -9.87064,11.3892 -9.87064,11.3892 z"
       id="path4823"
       inkscape:connector-curvature="0"
       sodipodi:nodetypes="czzcczzcc" />
    <path
       style="fill:#000000;fill-rule:evenodd;stroke:#ffffff;stroke-width:4;stroke-linecap:butt;stroke-linejoin:miter;stroke-opacity:1"
       d="m 385.30884,677.45144 c -4.33561,1.15373 -5.4291,1.73752 -6.07424,3.7964 -0.64514,2.05888 -0.91177,3.11086 2.27784,5.31497 3.18961,2.20411 13.13427,1.24356 17.46345,0.75928 4.32918,-0.48428 7.10478,0.0528 8.35208,-2.27784 1.2473,-2.3306 1.31605,-4.13675 -2.27784,-6.83353 -3.59389,-2.69678 -15.40568,-1.91301 -19.74129,-0.75928 z"
       id="path4825"
       inkscape:connector-curvature="0"
       sodipodi:nodetypes="zzzzzzz" />
    <path
       inkscape:connector-curvature="0"
       id="path4862"
       style="font-style:normal;font-variant:normal;font-weight:bold;font-stretch:normal;font-size:medium;line-height:125%;font-family:Alef;-inkscape-font-specification:'Alef Bold';letter-spacing:0px;word-spacing:0px;fill:#ffffff;fill-opacity:1;stroke:none;stroke-width:1px;stroke-linecap:butt;stroke-linejoin:miter;stroke-opacity:1"
       d="m 491.83948,715.74487 q 0.27344,-1.05468 0.58594,-2.07031 0.3125,-1.01562 0.64453,-2.07031 l 7.57812,1.99219 q 0.0391,0.68359 0.0781,1.36718 0.0391,0.6836 0.0586,1.36719 -0.19531,1.52344 -0.52734,2.89063 -0.33203,1.36718 -0.78125,2.61718 -0.82032,2.2461 -1.95313,4.00391 -1.11328,1.75781 -2.5,3.125 -1.36719,1.34766 -2.94922,2.36328 -1.58203,1.01563 -3.32031,1.79688 -1.71875,0.78125 -3.57422,1.36718 -1.83594,0.60547 -3.73047,1.09375 l -1.40625,-4.49218 q 2.05078,-0.52735 3.78907,-1.07422 1.73828,-0.56641 3.20312,-1.23047 -0.95703,-2.53906 -1.89453,-5.03906 -0.9375,-2.51954 -1.89453,-5.0586 -0.21485,-0.50781 -0.39063,-0.83984 -0.15625,-0.33203 -0.35156,-0.54688 -0.17578,-0.23437 -0.42969,-0.37109 -0.23437,-0.15625 -0.60547,-0.29297 l -2.34375,-0.99609 q 0.44922,-1.03516 0.91797,-2.03125 0.48828,-0.9961 0.97657,-1.99219 0.625,0.21484 1.25,0.44922 0.625,0.23437 1.25,0.48828 0.99609,0.39062 1.67968,0.78125 0.70313,0.39062 1.17188,0.82031 0.48828,0.42969 0.80078,0.95703 0.3125,0.50782 0.56641,1.15235 0.41015,1.03515 0.72265,1.95312 0.33203,0.89844 0.70313,1.99219 0.37109,1.09375 0.83984,2.55859 0.48828,1.44532 1.21094,3.57422 0.99609,-0.8789 1.58203,-1.79687 0.60547,-0.9375 1.05469,-1.9336 0.5664,-1.28906 0.99609,-2.77343 0.42969,-1.48438 0.66406,-3.125 l -3.67187,-0.97657 z" />
    <path
       inkscape:connector-curvature="0"
       id="path4864"
       style="font-style:normal;font-variant:normal;font-weight:bold;font-stretch:normal;font-size:medium;line-height:125%;font-family:Alef;-inkscape-font-specification:'Alef Bold';letter-spacing:0px;word-spacing:0px;fill:#ffffff;fill-opacity:1;stroke:none;stroke-width:1px;stroke-linecap:butt;stroke-linejoin:miter;stroke-opacity:1"
       d="m 465.43323,716.64331 q -0.9961,0 -1.75781,-0.0195 -0.76172,-0.0391 -1.46485,-0.11719 -0.70312,-0.0976 -1.44531,-0.27344 -0.72266,-0.19531 -1.66016,-0.52734 0.3125,-1.05469 0.625,-2.07031 0.33203,-1.03516 0.70313,-2.03125 0.99609,0.27344 1.69922,0.42969 0.72265,0.15625 1.36718,0.2539 0.66407,0.0781 1.38672,0.0977 0.72266,0.0195 1.75782,0.0195 l 2.36328,0 q 1.23047,0 2.42187,0.27344 1.19141,0.27343 2.14844,1.03515 0.9375,0.74219 1.52344,2.05078 0.58593,1.3086 0.58593,3.41797 l 0,13.53516 -5.33203,0 0,-12.16797 q 0,-1.21094 -0.11718,-1.97266 -0.0977,-0.76171 -0.46875,-1.1914 -0.3711,-0.42969 -1.07422,-0.58594 -0.70313,-0.15625 -1.875,-0.15625 l -1.38672,0 z" />
    <path
       inkscape:connector-curvature="0"
       id="path4866"
       style="font-style:normal;font-variant:normal;font-weight:bold;font-stretch:normal;font-size:medium;line-height:125%;font-family:Alef;-inkscape-font-specification:'Alef Bold';letter-spacing:0px;word-spacing:0px;fill:#ffffff;fill-opacity:1;stroke:none;stroke-width:1px;stroke-linecap:butt;stroke-linejoin:miter;stroke-opacity:1"
       d="m 445.23792,716.64331 q -0.9961,0 -1.75782,-0.0195 -0.76172,-0.0391 -1.46484,-0.11719 -0.70313,-0.0976 -1.44531,-0.27344 -0.72266,-0.19531 -1.66016,-0.52734 0.3125,-1.05469 0.625,-2.07031 0.33203,-1.03516 0.70313,-2.03125 0.99609,0.27344 1.69921,0.42969 0.72266,0.15625 1.36719,0.2539 0.66406,0.0781 1.38672,0.0977 0.72266,0.0195 1.75781,0.0195 l 1.73828,0 q 1.19141,0 2.34375,0.3125 1.17188,0.29297 2.10938,1.07422 0.9375,0.78125 1.54297,2.10937 0.625,1.32813 0.72265,3.39844 0.0586,1.09375 0.0781,2.1875 0.0195,1.07422 0.0391,2.24609 0.0195,1.15235 0.0195,2.42188 0,1.26953 0,2.71484 0,0.46875 -0.0195,0.85938 -0.0195,0.37109 -0.0781,0.80078 -0.0586,0.42969 -0.17578,0.95703 -0.0977,0.50781 -0.27344,1.25 l -17.05078,0 0,-4.23828 12.32422,0 q 0,-0.91797 -0.0195,-1.91406 -0.0195,-1.01563 -0.0391,-2.03125 0,-1.03516 -0.0391,-2.05078 -0.0195,-1.01563 -0.0391,-1.95313 0,-1.21094 -0.11719,-1.97266 -0.0977,-0.76171 -0.46875,-1.1914 -0.37109,-0.42969 -1.07422,-0.58594 -0.70312,-0.15625 -1.875,-0.15625 l -0.85937,0 z" />
    <path
       inkscape:connector-curvature="0"
       id="path4868"
       style="font-style:normal;font-variant:normal;font-weight:bold;font-stretch:normal;font-size:medium;line-height:125%;font-family:Alef;-inkscape-font-specification:'Alef Bold';letter-spacing:0px;word-spacing:0px;fill:#ffffff;fill-opacity:1;stroke:none;stroke-width:1px;stroke-linecap:butt;stroke-linejoin:miter;stroke-opacity:1"
       d="m 433.69495,712.40503 0,7.42187 q 0,1.05469 -0.0195,1.75782 -0.0195,0.70312 -0.0781,1.28906 -0.0586,0.58594 -0.15625,1.13281 -0.0977,0.54688 -0.25391,1.21094 l -5.2539,-0.76172 q 0.0977,-0.58594 0.17578,-1.07422 0.0781,-0.48828 0.13672,-1.03515 0.0586,-0.54688 0.0781,-1.23047 0.0391,-0.6836 0.0391,-1.64063 l 0,-2.83203 -4.47266,0 0,-4.23828 9.80469,0 z" />
    <path
       inkscape:connector-curvature="0"
       id="path4870"
       style="font-style:normal;font-variant:normal;font-weight:bold;font-stretch:normal;font-size:medium;line-height:125%;font-family:Alef;-inkscape-font-specification:'Alef Bold';letter-spacing:0px;word-spacing:0px;fill:#ffffff;fill-opacity:1;stroke:none;stroke-width:1px;stroke-linecap:butt;stroke-linejoin:miter;stroke-opacity:1"
       d="m 412.8551,712.40503 q 1.23047,0 2.42188,0.27344 1.1914,0.27343 2.14844,1.03515 0.9375,0.74219 1.52343,2.07032 0.58594,1.30859 0.58594,3.4375 l 0,13.49609 -18.94531,0 0,-11.17188 q 0,-1.21093 0.15625,-2.46093 0.17578,-1.25 0.52734,-2.59766 -0.68359,-0.0977 -1.38672,-0.27344 -0.70312,-0.19531 -1.62109,-0.50781 0.3125,-1.05469 0.625,-2.07031 0.33203,-1.03516 0.70312,-2.03125 0.9961,0.27344 1.69922,0.42969 0.72266,0.15625 1.36719,0.2539 0.66406,0.0781 1.38672,0.0977 0.72266,0.0195 1.75781,0.0195 l 7.05078,0 z m 1.38672,16.07422 0,-7.92969 q 0,-1.21094 -0.11719,-1.97266 -0.0977,-0.76171 -0.46875,-1.1914 -0.37109,-0.42969 -1.07421,-0.58594 -0.70313,-0.15625 -1.875,-0.15625 l -4.39454,0 q -0.3125,1.34766 -0.37109,2.48047 -0.0586,1.11328 -0.0586,2.30469 l 0,7.05078 8.35937,0 z" />
    <circle
       style="opacity:1;fill:none;fill-opacity:1;fill-rule:nonzero;stroke:#ffffff;stroke-width:2;stroke-linecap:round;stroke-linejoin:round;stroke-miterlimit:4;stroke-dasharray:none;stroke-dashoffset:0;stroke-opacity:1"
       id="path4833"
       cx="387.07669"
       cy="715.21515"
       r="5.1004748" />
    <g
       style="font-style:normal;font-weight:normal;font-size:40px;line-height:125%;font-family:sans-serif;letter-spacing:0px;word-spacing:0px;fill:#000000;fill-opacity:1;stroke:none;stroke-width:1px;stroke-linecap:butt;stroke-linejoin:miter;stroke-opacity:1"
       id="text4835"
       transform="translate(-0.5368921,-4.9262158)">
      <path
         d="m 387.22437,716.5155 q 0.46386,0 0.87402,0.10742 0.41504,0.10743 0.73242,0.3418 0.32227,0.23926 0.50293,0.60547 0.18555,0.36621 0.18555,0.86426 0,0.49805 -0.18555,0.86426 -0.18066,0.36621 -0.50293,0.60546 -0.24902,0.18555 -0.55664,0.28809 -0.30273,0.10254 -0.64941,0.1416 l -0.005,0.01 q 0.1416,0.0928 0.3125,0.26367 0.1709,0.16602 0.35645,0.39551 0.18555,0.22949 0.38086,0.49804 0.19531,0.26368 0.39551,0.55665 l 1.01562,1.47949 -1.07422,0 -1.10351,-1.70899 q -0.29786,-0.46875 -0.51758,-0.75683 -0.21485,-0.28809 -0.41016,-0.4541 -0.19043,-0.16602 -0.39062,-0.22461 -0.2002,-0.0586 -0.46387,-0.0586 l -0.18555,0 0,3.20313 -0.9082,0 0,-7.02149 2.19727,0 z m 0,3.10547 q 0.30761,0 0.56152,-0.0684 0.2539,-0.0684 0.43457,-0.20996 0.18555,-0.14648 0.28808,-0.37109 0.10254,-0.22461 0.10254,-0.53711 0,-0.3125 -0.10254,-0.53711 -0.10253,-0.22461 -0.28808,-0.36621 -0.18067,-0.14649 -0.43457,-0.21485 -0.25391,-0.0684 -0.56152,-0.0684 l -1.28907,0 0,2.37305 1.28907,0 z"
         style="font-style:normal;font-variant:normal;font-weight:normal;font-stretch:normal;font-size:10px;font-family:Alef;-inkscape-font-specification:Alef;fill:#ffffff"
         id="path4840"
         inkscape:connector-curvature="0" />
    </g>
    <g
       style="font-style:normal;font-weight:normal;font-size:40px;line-height:125%;font-family:sans-serif;letter-spacing:0px;word-spacing:0px;fill:#000000;fill-opacity:1;stroke:none;stroke-width:1px;stroke-linecap:butt;stroke-linejoin:miter;stroke-opacity:1"
       id="text4842">
      <path
         d="m 484.25546,743.09271 q -0.033,-0.52185 -0.0494,-0.87341 -0.011,-0.35706 -0.0385,-0.62622 -0.022,-0.26917 -0.0769,-0.48889 -0.0549,-0.22522 -0.1593,-0.47791 0.19775,-0.10986 0.40649,-0.19775 0.21423,-0.0879 0.42297,-0.1648 0.10437,0.19776 0.17029,0.38452 0.0659,0.18128 0.10437,0.39551 0.0385,0.21424 0.0604,0.48889 0.022,0.27466 0.0439,0.65369 l 0.17029,3.09814 q 0.0769,0.005 0.15381,0.011 0.0769,0 0.15381,0 0.62622,0 1.15905,-0.19226 0.53284,-0.19226 0.92286,-0.59875 0.3955,-0.4065 0.61523,-1.03272 0.22522,-0.62622 0.22522,-1.49963 0,-0.19776 -0.0165,-0.36255 -0.011,-0.17029 -0.0384,-0.29114 -0.26367,-0.0659 -0.51087,-0.10986 -0.24169,-0.0439 -0.52734,-0.0714 -0.0659,0.19226 -0.12634,0.35156 -0.0549,0.15381 -0.10987,0.30762 -0.0494,0.1538 -0.10437,0.31311 -0.0494,0.1538 -0.10437,0.34057 l -0.76355,-0.25268 q 0.13184,-0.4834 0.29114,-0.95581 0.1648,-0.47791 0.34058,-0.95581 0.68664,0.0439 1.27441,0.1593 0.59326,0.10986 1.14258,0.23071 0.0769,0.30762 0.10437,0.63721 0.033,0.32959 0.033,0.73059 0,0.9613 -0.26367,1.69189 -0.25818,0.7251 -0.7251,1.23596 -0.3241,0.34607 -0.68115,0.57129 -0.35156,0.22522 -0.73609,0.35706 -0.37902,0.13184 -0.78552,0.18127 -0.40649,0.0494 -0.82397,0.0494 -0.26367,0 -0.51087,-0.0165 -0.2417,-0.011 -0.46142,-0.0385 l -0.18128,-2.98279 z"
         style="font-style:normal;font-variant:normal;font-weight:normal;font-stretch:normal;font-size:11.25px;font-family:Alef;-inkscape-font-specification:Alef;fill:#ffffff"
         id="path4847" />
      <path
         d="m 480.93759,741.04926 q 0.0549,-0.20874 0.10986,-0.4065 0.0604,-0.20325 0.12085,-0.41199 l 1.62049,0.42847 q 0.0165,0.19226 0.0275,0.38452 0.011,0.19226 0.011,0.38452 -0.0549,0.46143 -0.16479,0.90638 -0.10438,0.43945 -0.27466,0.85693 -0.17029,0.41748 -0.41748,0.80749 -0.2417,0.38453 -0.57129,0.7306 -0.34607,0.36254 -0.78003,0.65917 -0.43396,0.29114 -0.95032,0.53834 -0.37353,0.17578 -0.78552,0.32409 -0.4065,0.14832 -0.87341,0.27466 l -0.26917,-0.84595 q 0.42847,-0.12634 0.87891,-0.28015 0.45593,-0.15381 0.92285,-0.36804 -0.29663,-0.76904 -0.58777,-1.53259 -0.28565,-0.76905 -0.58228,-1.53809 -0.0769,-0.19775 -0.13733,-0.31311 -0.0549,-0.12085 -0.14831,-0.21423 -0.0989,-0.0934 -0.25818,-0.17578 -0.1593,-0.0824 -0.43945,-0.21424 0.0989,-0.19775 0.20324,-0.39551 0.10437,-0.19775 0.21424,-0.3955 0.30212,0.12085 0.51636,0.21972 0.21423,0.0989 0.36804,0.21973 0.15381,0.10986 0.25818,0.25818 0.10437,0.14831 0.19775,0.37903 0.0549,0.14282 0.10986,0.28564 0.0549,0.14282 0.12085,0.3186 0.0659,0.17579 0.14832,0.4065 0.0824,0.22522 0.19226,0.53833 0.11536,0.31311 0.25818,0.7251 0.14831,0.41198 0.34607,0.9613 0.36255,-0.26916 0.62072,-0.60974 0.26368,-0.34607 0.45044,-0.75806 0.18128,-0.41198 0.29664,-0.8789 0.11535,-0.47242 0.17578,-1.01624 l -0.92835,-0.25268 z"
         style="font-style:normal;font-variant:normal;font-weight:normal;font-stretch:normal;font-size:11.25px;font-family:Alef;-inkscape-font-specification:Alef;fill:#ffffff"
         id="path4849" />
      <path
         d="m 471.68161,743.02679 q 0,-0.26916 0.005,-0.49438 0.011,-0.23071 0.0439,-0.44495 0.033,-0.21423 0.0934,-0.43396 0.0604,-0.21972 0.1648,-0.47241 -0.18128,-0.022 -0.36804,-0.0659 -0.18128,-0.0494 -0.40101,-0.13183 0.0714,-0.19776 0.13733,-0.39551 0.0714,-0.19775 0.14283,-0.40649 0.23071,0.0714 0.40649,0.11535 0.17578,0.0385 0.34058,0.0604 0.17028,0.0165 0.35156,0.022 0.18677,0 0.43396,0 l 1.48315,0 q 0.34607,0 0.68116,0.0769 0.34057,0.0769 0.60974,0.29114 0.26916,0.20874 0.43396,0.57678 0.16479,0.36805 0.16479,0.96131 l 0,3.80127 -4.72412,0 0,-3.0597 z m 3.7738,-0.60424 q 0,-0.35157 -0.0494,-0.58228 -0.0494,-0.23071 -0.17579,-0.36804 -0.12634,-0.14282 -0.34057,-0.19775 -0.21424,-0.0604 -0.53833,-0.0604 l -1.43921,0 q -0.10986,0.23071 -0.17029,0.46143 -0.0549,0.22522 -0.0824,0.44494 -0.022,0.21973 -0.0275,0.43396 0,0.20874 0,0.41199 l 0,2.28516 2.82348,0 0,-2.82898 z"
         style="font-style:normal;font-variant:normal;font-weight:normal;font-stretch:normal;font-size:11.25px;font-family:Alef;-inkscape-font-specification:Alef;fill:#ffffff"
         id="path4851" />
      <path
         d="m 461.73349,743.09271 q -0.033,-0.52185 -0.0494,-0.87341 -0.011,-0.35706 -0.0385,-0.62622 -0.022,-0.26917 -0.0769,-0.48889 -0.0549,-0.22522 -0.15931,-0.47791 0.19776,-0.10986 0.4065,-0.19775 0.21423,-0.0879 0.42297,-0.1648 0.10437,0.19776 0.17029,0.38452 0.0659,0.18128 0.10437,0.39551 0.0384,0.21424 0.0604,0.48889 0.022,0.27466 0.0439,0.65369 l 0.17029,3.09814 q 0.0769,0.005 0.15381,0.011 0.0769,0 0.1538,0 0.62623,0 1.15906,-0.19226 0.53284,-0.19226 0.92285,-0.59875 0.39551,-0.4065 0.61524,-1.03272 0.22522,-0.62622 0.22522,-1.49963 0,-0.19776 -0.0165,-0.36255 -0.011,-0.17029 -0.0385,-0.29114 -0.26368,-0.0659 -0.51087,-0.10986 -0.2417,-0.0439 -0.52734,-0.0714 -0.0659,0.19226 -0.12634,0.35156 -0.0549,0.15381 -0.10987,0.30762 -0.0494,0.1538 -0.10437,0.31311 -0.0494,0.1538 -0.10437,0.34057 l -0.76355,-0.25268 q 0.13184,-0.4834 0.29114,-0.95581 0.16479,-0.47791 0.34058,-0.95581 0.68664,0.0439 1.27441,0.1593 0.59326,0.10986 1.14258,0.23071 0.0769,0.30762 0.10437,0.63721 0.033,0.32959 0.033,0.73059 0,0.9613 -0.26367,1.69189 -0.25818,0.7251 -0.7251,1.23596 -0.3241,0.34607 -0.68115,0.57129 -0.35157,0.22522 -0.73609,0.35706 -0.37903,0.13184 -0.78552,0.18127 -0.4065,0.0494 -0.82398,0.0494 -0.26367,0 -0.51086,-0.0165 -0.2417,-0.011 -0.46143,-0.0385 l -0.18127,-2.98279 z"
         style="font-style:normal;font-variant:normal;font-weight:normal;font-stretch:normal;font-size:11.25px;font-family:Alef;-inkscape-font-specification:Alef;fill:#ffffff"
         id="path4853" />
      <path
         d="m 457.00937,741.21405 q -0.2417,0 -0.43396,-0.005 -0.19226,-0.005 -0.37354,-0.0275 -0.17578,-0.022 -0.35705,-0.0659 -0.18128,-0.0494 -0.39551,-0.13183 0.0714,-0.19776 0.13733,-0.39551 0.0714,-0.19775 0.14282,-0.40649 0.23071,0.0714 0.4065,0.10986 0.17578,0.0385 0.34057,0.0604 0.17029,0.0165 0.35156,0.022 0.18677,0.005 0.43396,0.005 l 0.15931,0 q 0.34607,0 0.68115,0.0769 0.33508,0.0769 0.60425,0.29114 0.26367,0.20874 0.42846,0.57678 0.1648,0.36805 0.1648,0.96131 l 0,2.96631 1.01074,0 0,0.83496 -5.20203,0 0,-0.83496 3.24097,0 0,-2.82898 q 0,-0.34058 -0.0494,-0.57129 -0.0494,-0.23621 -0.17578,-0.37354 -0.12085,-0.14282 -0.33508,-0.20324 -0.21424,-0.0604 -0.54383,-0.0604 l -0.2362,0 z"
         style="font-style:normal;font-variant:normal;font-weight:normal;font-stretch:normal;font-size:11.25px;font-family:Alef;-inkscape-font-specification:Alef;fill:#ffffff"
         id="path4855" />
      <path
         d="m 452.26328,741.04926 q 0.0549,-0.20874 0.10986,-0.4065 0.0604,-0.20325 0.12085,-0.41199 l 1.62048,0.42847 q 0.0165,0.19226 0.0275,0.38452 0.011,0.19226 0.011,0.38452 -0.0549,0.46143 -0.16479,0.90638 -0.10437,0.43945 -0.27466,0.85693 -0.17029,0.41748 -0.41748,0.80749 -0.2417,0.38453 -0.57129,0.7306 -0.34607,0.36254 -0.78003,0.65917 -0.43396,0.29114 -0.95032,0.53834 -0.37353,0.17578 -0.78552,0.32409 -0.40649,0.14832 -0.87341,0.27466 l -0.26917,-0.84595 q 0.42847,-0.12634 0.87891,-0.28015 0.45593,-0.15381 0.92285,-0.36804 -0.29663,-0.76904 -0.58777,-1.53259 -0.28564,-0.76905 -0.58227,-1.53809 -0.0769,-0.19775 -0.13733,-0.31311 -0.0549,-0.12085 -0.14832,-0.21423 -0.0989,-0.0934 -0.25818,-0.17578 -0.1593,-0.0824 -0.43945,-0.21424 0.0989,-0.19775 0.20325,-0.39551 0.10437,-0.19775 0.21423,-0.3955 0.30213,0.12085 0.51636,0.21972 0.21423,0.0989 0.36804,0.21973 0.15381,0.10986 0.25818,0.25818 0.10437,0.14831 0.19775,0.37903 0.0549,0.14282 0.10987,0.28564 0.0549,0.14282 0.12085,0.3186 0.0659,0.17579 0.14831,0.4065 0.0824,0.22522 0.19226,0.53833 0.11536,0.31311 0.25818,0.7251 0.14832,0.41198 0.34607,0.9613 0.36255,-0.26916 0.62073,-0.60974 0.26367,-0.34607 0.45044,-0.75806 0.18127,-0.41198 0.29663,-0.8789 0.11536,-0.47242 0.17578,-1.01624 l -0.92834,-0.25268 z"
         style="font-style:normal;font-variant:normal;font-weight:normal;font-stretch:normal;font-size:11.25px;font-family:Alef;-inkscape-font-specification:Alef;fill:#ffffff"
         id="path4857" />
      <path
         d="m 447.62155,740.37909 0,1.77978 q 0,0.29664 -0.005,0.49439 -0.005,0.19775 -0.022,0.36255 -0.0165,0.16479 -0.0439,0.3186 -0.0275,0.15381 -0.0714,0.34058 l -0.92835,-0.13733 q 0.0275,-0.1648 0.0494,-0.30213 0.022,-0.13732 0.0385,-0.29113 0.0165,-0.15381 0.022,-0.34607 0.011,-0.19226 0.011,-0.46143 l 0,-0.92285 -1.25793,0 0,-0.83496 2.20825,0 z"
         style="font-style:normal;font-variant:normal;font-weight:normal;font-stretch:normal;font-size:11.25px;font-family:Alef;-inkscape-font-specification:Alef;fill:#ffffff"
         id="path4859" />
    </g>
  </g>
</svg>
