<?xml version="1.0" encoding="UTF-8" standalone="no"?>
<!-- Created with Inkscape (http://www.inkscape.org/) -->

<svg
   xmlns:dc="http://purl.org/dc/elements/1.1/"
   xmlns:cc="http://creativecommons.org/ns#"
   xmlns:rdf="http://www.w3.org/1999/02/22-rdf-syntax-ns#"
   xmlns:svg="http://www.w3.org/2000/svg"
   xmlns="http://www.w3.org/2000/svg"
   xmlns:sodipodi="http://sodipodi.sourceforge.net/DTD/sodipodi-0.dtd"
   xmlns:inkscape="http://www.inkscape.org/namespaces/inkscape"
   width="240mm"
   height="80mm"
   viewBox="0 0 850.3937 283.46456"
   id="svg2"
   version="1.1"
   inkscape:version="0.91 r13725"
   sodipodi:docname="7.svg">
  <defs
     id="defs4" />
  <sodipodi:namedview
     id="base"
     pagecolor="#ffffff"
     bordercolor="#666666"
     borderopacity="1.0"
     inkscape:pageopacity="0.0"
     inkscape:pageshadow="2"
     inkscape:zoom="0.97484259"
     inkscape:cx="425.19685"
     inkscape:cy="141.73228"
     inkscape:document-units="px"
     inkscape:current-layer="layer1"
     showgrid="false"
     showguides="true"
     fit-margin-top="0"
     fit-margin-left="0"
     fit-margin-right="0"
     fit-margin-bottom="0"
     inkscape:window-width="1280"
     inkscape:window-height="961"
     inkscape:window-x="-8"
     inkscape:window-y="-8"
     inkscape:window-maximized="1" />
  <metadata
     id="metadata7">
    <rdf:RDF>
      <cc:Work
         rdf:about="">
        <dc:format>image/svg+xml</dc:format>
        <dc:type
           rdf:resource="http://purl.org/dc/dcmitype/StillImage" />
        <dc:title></dc:title>
      </cc:Work>
    </rdf:RDF>
  </metadata>
  <g
     inkscape:label="Layer 1"
     inkscape:groupmode="layer"
     id="layer1"
     transform="translate(-10.983758,-598.9925)">
    <path
       style="fill:#000000;fill-rule:evenodd;stroke:none;stroke-width:1px;stroke-linecap:butt;stroke-linejoin:miter;stroke-opacity:1"
       d="m 180.43019,608.83364 c -20.6537,4.33362 -51.25459,12.49864 -66.09167,25.9342 -14.83709,13.43555 -22.71902,34.57892 -22.71902,43.22364 0,8.64474 8.47852,32.02843 4.13073,47.54603 -4.3478,15.51759 -22.64481,21.79119 -28.91511,38.90128 -6.27031,17.1101 -10.52322,45.40317 -4.13073,60.51312 6.39248,15.10994 13.9057,15.6221 28.91511,23.773 15.0094,8.1509 41.02249,16.60697 61.96095,19.45064 20.93846,2.84367 45.10206,6.11666 61.96094,-2.16119 16.85889,-8.27785 18.34326,-29.68238 33.04585,-38.90128 14.7026,-9.21888 27.8013,-17.48799 51.63411,-12.96709 23.83283,4.5209 46.86146,43.44728 76.41852,54.02956 29.55705,10.58228 58.49743,9.07631 95.00679,6.48355 36.50935,-2.59276 82.05571,-21.74179 121.85654,-25.93419 39.80082,-4.1924 85.36923,6.82539 115.66043,0 30.2912,-6.82539 48.01935,-11.53086 64.02632,-30.25656 16.00697,-18.7257 21.56959,-48.83899 22.71901,-73.48021 1.14943,-24.64121 -4.14336,-49.41967 -14.45755,-69.15783 -10.3142,-19.73817 -17.62298,-32.40039 -43.37267,-45.38484 -25.74968,-12.98445 -67.8094,-9.22065 -109.46434,-12.9671 -41.65494,-3.74645 -94.53855,-12.77306 -140.44482,-8.64473 -45.90627,4.12834 -98.28098,32.15412 -132.18335,32.41774 -33.90238,0.26362 -46.12061,-9.24781 -66.09169,-15.12827 -19.97109,-5.88046 -35.13354,-16.552 -53.69949,-19.45065 -18.56595,-2.89864 -35.11115,-2.17243 -55.76486,2.16118 z"
       id="path4558"
       inkscape:connector-curvature="0"
       sodipodi:nodetypes="zzzzzzzzzzzzzzzzzzzzzzzzz" />
    <g
       transform="translate(194,-15.123422)"
       id="g4536" />
    <path
       style="fill:#000000;fill-rule:evenodd;stroke:#ffffff;stroke-width:4;stroke-linecap:butt;stroke-linejoin:miter;stroke-opacity:1"
       d="m 421.75429,893.84627 c 0.75928,-3.7964 -2.27784,-154.89314 -2.27784,-154.89314 l 16.70416,0.75928 1.51856,149.57818 z"
       id="path4882"
       inkscape:connector-curvature="0" />
    <ellipse
       style="opacity:1;fill:#000000;fill-opacity:1;fill-rule:nonzero;stroke:#ffffff;stroke-width:4;stroke-linecap:round;stroke-linejoin:round;stroke-miterlimit:4;stroke-dasharray:none;stroke-dashoffset:0;stroke-opacity:1"
       id="path4884"
       cx="431.2453"
       cy="747.68488"
       rx="33.028683"
       ry="20.120922" />
    <path
       style="fill:#000000;fill-rule:evenodd;stroke:#ffffff;stroke-width:4;stroke-linecap:butt;stroke-linejoin:miter;stroke-opacity:1"
       d="m 431.62493,660.74728 1.51856,56.94601 0.75928,20.50056 10.62992,6.07424 6.83352,5.31496 17.46344,-4.55568 10.62993,4.55568 9.87064,-6.07424 8.35208,-12.14848 1.51856,-13.66704 -8.35208,-17.46344 3.7964,-18.22273 -15.1856,-4.55568 -9.11137,-13.66704 -19.74128,-2.27784 z"
       id="path4888"
       inkscape:connector-curvature="0" />
    <path
       inkscape:connector-curvature="0"
       id="path4890"
       d="m 424.02674,660.74728 1.51856,56.94601 -1.51856,19.74128 -12.90776,6.83352 -6.83352,-0.75928 -17.46344,-4.55568 -10.62993,4.55568 -9.87064,-6.07424 -8.35208,-12.14848 -1.51856,-7.5928 8.35208,-17.46344 -3.7964,-18.22273 15.1856,-4.55568 9.11137,-13.66704 19.74128,-2.27784 z"
       style="fill:#000000;fill-rule:evenodd;stroke:#ffffff;stroke-width:4;stroke-linecap:butt;stroke-linejoin:miter;stroke-opacity:1"
       sodipodi:nodetypes="cccccccccccccccc" />
    <circle
       style="opacity:1;fill:#000000;fill-opacity:1;fill-rule:nonzero;stroke:#ffffff;stroke-width:4;stroke-linecap:round;stroke-linejoin:round;stroke-miterlimit:4;stroke-dasharray:none;stroke-dashoffset:0;stroke-opacity:1"
       id="path4892"
       cx="392.522"
       cy="744.64777"
       r="20.880203" />
    <circle
       style="opacity:1;fill:#ffffff;fill-opacity:1;fill-rule:nonzero;stroke:none;stroke-width:4;stroke-linecap:round;stroke-linejoin:round;stroke-miterlimit:4;stroke-dasharray:none;stroke-dashoffset:0;stroke-opacity:1"
       id="path4898"
       cx="398.97589"
       cy="750.34235"
       r="7.5928011" />
    <circle
       r="20.880203"
       cy="743.88849"
       cx="462.37576"
       id="circle4900"
       style="opacity:1;fill:#000000;fill-opacity:1;fill-rule:nonzero;stroke:#ffffff;stroke-width:4;stroke-linecap:round;stroke-linejoin:round;stroke-miterlimit:4;stroke-dasharray:none;stroke-dashoffset:0;stroke-opacity:1" />
    <circle
       r="7.5928011"
       cy="750.82373"
       cx="465.79251"
       id="circle4902"
       style="opacity:1;fill:#ffffff;fill-opacity:1;fill-rule:nonzero;stroke:none;stroke-width:4;stroke-linecap:round;stroke-linejoin:round;stroke-miterlimit:4;stroke-dasharray:none;stroke-dashoffset:0;stroke-opacity:1" />
  </g>
</svg>
