<?xml version="1.0" encoding="UTF-8" standalone="no"?>
<!-- Created with Inkscape (http://www.inkscape.org/) -->

<svg
   xmlns:dc="http://purl.org/dc/elements/1.1/"
   xmlns:cc="http://creativecommons.org/ns#"
   xmlns:rdf="http://www.w3.org/1999/02/22-rdf-syntax-ns#"
   xmlns:svg="http://www.w3.org/2000/svg"
   xmlns="http://www.w3.org/2000/svg"
   xmlns:sodipodi="http://sodipodi.sourceforge.net/DTD/sodipodi-0.dtd"
   xmlns:inkscape="http://www.inkscape.org/namespaces/inkscape"
   width="240mm"
   height="80mm"
   viewBox="0 0 850.3937 283.46456"
   id="svg2"
   version="1.1"
   inkscape:version="0.91 r13725"
   sodipodi:docname="9.svg">
  <defs
     id="defs4" />
  <sodipodi:namedview
     id="base"
     pagecolor="#ffffff"
     bordercolor="#666666"
     borderopacity="1.0"
     inkscape:pageopacity="0.0"
     inkscape:pageshadow="2"
     inkscape:zoom="1.3786356"
     inkscape:cx="432.06749"
     inkscape:cy="191.53695"
     inkscape:document-units="px"
     inkscape:current-layer="layer1"
     showgrid="false"
     showguides="true"
     fit-margin-top="0"
     fit-margin-left="0"
     fit-margin-right="0"
     fit-margin-bottom="0"
     inkscape:window-width="1280"
     inkscape:window-height="961"
     inkscape:window-x="-8"
     inkscape:window-y="-8"
     inkscape:window-maximized="1" />
  <metadata
     id="metadata7">
    <rdf:RDF>
      <cc:Work
         rdf:about="">
        <dc:format>image/svg+xml</dc:format>
        <dc:type
           rdf:resource="http://purl.org/dc/dcmitype/StillImage" />
        <dc:title></dc:title>
      </cc:Work>
    </rdf:RDF>
  </metadata>
  <g
     inkscape:label="Layer 1"
     inkscape:groupmode="layer"
     id="layer1"
     transform="translate(-10.983758,-598.9925)">
    <path
       style="fill:#000000;fill-rule:evenodd;stroke:none;stroke-width:1px;stroke-linecap:butt;stroke-linejoin:miter;stroke-opacity:1"
       d="m 180.43019,608.83364 c -20.6537,4.33362 -51.25459,12.49864 -66.09167,25.9342 -14.83709,13.43555 -22.71902,34.57892 -22.71902,43.22364 0,8.64474 8.47852,32.02843 4.13073,47.54603 -4.3478,15.51759 -22.64481,21.79119 -28.91511,38.90128 -6.27031,17.1101 -10.52322,45.40317 -4.13073,60.51312 6.39248,15.10994 13.9057,15.6221 28.91511,23.773 15.0094,8.1509 41.02249,16.60697 61.96095,19.45064 20.93846,2.84367 45.10206,6.11666 61.96094,-2.16119 16.85889,-8.27785 18.34326,-29.68238 33.04585,-38.90128 14.7026,-9.21888 27.8013,-17.48799 51.63411,-12.96709 23.83283,4.5209 46.86146,43.44728 76.41852,54.02956 29.55705,10.58228 58.49743,9.07631 95.00679,6.48355 36.50935,-2.59276 82.05571,-21.74179 121.85654,-25.93419 39.80082,-4.1924 85.36923,6.82539 115.66043,0 30.2912,-6.82539 48.01935,-11.53086 64.02632,-30.25656 16.00697,-18.7257 21.56959,-48.83899 22.71901,-73.48021 1.14943,-24.64121 -4.14336,-49.41967 -14.45755,-69.15783 -10.3142,-19.73817 -17.62298,-32.40039 -43.37267,-45.38484 -25.74968,-12.98445 -67.8094,-9.22065 -109.46434,-12.9671 -41.65494,-3.74645 -94.53855,-12.77306 -140.44482,-8.64473 -45.90627,4.12834 -98.28098,32.15412 -132.18335,32.41774 -33.90238,0.26362 -46.12061,-9.24781 -66.09169,-15.12827 -19.97109,-5.88046 -35.13354,-16.552 -53.69949,-19.45065 -18.56595,-2.89864 -35.11115,-2.17243 -55.76486,2.16118 z"
       id="path4558"
       inkscape:connector-curvature="0"
       sodipodi:nodetypes="zzzzzzzzzzzzzzzzzzzzzzzzz" />
    <g
       transform="translate(194,-15.123422)"
       id="g4536" />
    <rect
       style="opacity:1;fill:#ffffff;fill-opacity:1;fill-rule:nonzero;stroke:none;stroke-width:4;stroke-linecap:round;stroke-linejoin:round;stroke-miterlimit:4;stroke-dasharray:none;stroke-dashoffset:0;stroke-opacity:1"
       id="rect4950"
       width="320.05167"
       height="188.74843"
       x="281.79672"
       y="660.88281" />
    <path
       style="fill:#ffffff;fill-rule:evenodd;stroke:#000000;stroke-width:4;stroke-linecap:butt;stroke-linejoin:round;stroke-opacity:1"
       d="m 556.51633,804.50694 c 0,0 -5.43729,25.95519 -5.03999,36.96778 0.39729,11.01259 5.88685,27.82779 5.88685,27.82779 0,0 2.8965,-19.13714 5.16098,-27.71129 2.26447,-8.57413 8.17814,-23.61618 8.17814,-23.61618 0,0 3.42612,20.04836 6.83588,28.28927 3.40975,8.2409 12.79838,20.67706 12.79838,20.67706 0,0 -2.07355,-13.71868 -3.25914,-22.60811 -1.18558,-8.88942 -3.76954,-30.74003 -3.76954,-30.74003 L 572.0181,794.9637 Z"
       id="path4960"
       inkscape:connector-curvature="0"
       sodipodi:nodetypes="czczczczccc" />
    <path
       style="fill:#ffffff;fill-rule:evenodd;stroke:#000000;stroke-width:3;stroke-linecap:butt;stroke-linejoin:miter;stroke-opacity:1"
       d="m 546.09269,763.03325 -17.95162,-35.03353 c 0,0 0.23354,20.64795 3.59032,29.88154 3.35678,9.23358 15.90001,23.01222 15.90001,23.01222 z"
       id="path4966"
       inkscape:connector-curvature="0"
       sodipodi:nodetypes="cczcc" />
    <path
       style="fill:#ffffff;fill-rule:evenodd;stroke:#000000;stroke-width:4;stroke-linecap:butt;stroke-linejoin:miter;stroke-opacity:1"
       d="m 584.81689,778.83268 c 0,0 1.14905,3.37944 1.79516,5.49546 0.64611,2.11603 2.11191,4.23609 2.05161,7.21278 -0.0603,2.9767 -3.07742,9.27359 -3.07742,9.27359 l -4.87258,-22.32529 z"
       id="path4968"
       inkscape:connector-curvature="0"
       sodipodi:nodetypes="czzccc" />
    <path
       style="fill:#ffffff;fill-rule:evenodd;stroke:#000000;stroke-width:3;stroke-linecap:butt;stroke-linejoin:miter;stroke-opacity:1"
       d="m 562.31655,758.94782 c -1.1512,-2.92126 0.37087,-3.11101 -0.98922,-4.91107 -1.36009,-1.80005 -5.54589,-1.70539 -7.584,-3.92885 -2.0381,-2.22347 -3.38804,-6.20018 -3.62713,-8.83994 -0.23909,-2.63977 0.40101,-3.60733 1.31895,-6.22069 0.91794,-2.61337 1.7873,-7.23811 4.61636,-9.16734 2.82905,-1.92924 7.59397,-1.3264 10.22192,-0.98221 2.62794,0.34419 3.74296,0.89235 5.27583,1.96443 1.53288,1.07207 3.04838,1.69649 3.62712,4.25626 0.57875,2.55977 -1.80713,7.43529 -2.63791,9.82214 -0.83077,2.38686 -1.31826,3.11049 -1.97843,4.58367 -0.66017,1.47318 -1.85947,2.39148 -1.97844,4.25627 -0.11893,1.8648 1.55187,2.69783 1.97844,6.22069 0.42657,3.52287 -0.98921,14.73322 -0.98921,14.73322 0,0 -6.10307,-8.86532 -7.25428,-11.78658 z"
       id="path4970"
       inkscape:connector-curvature="0"
       sodipodi:nodetypes="zzzzzzzzzzzzzcz" />
    <path
       style="fill:#ffffff;fill-rule:nonzero;stroke:#000000;stroke-width:3;stroke-linecap:butt;stroke-linejoin:miter;stroke-opacity:1"
       d="m 555.53099,778.72328 -8.47796,-15.76625 -2.82422,14.69585 10.83236,13.49535 -2.79992,23.05267 6.23969,-0.0326 14.50437,0.37611 12.10141,-14.06663 -4.94637,-19.17261 -2.73237,-11.73066 3.08606,17.37541 6.0507,-7.03331 -3.41547,-14.66334 -8.78308,-4.69735 -5.08678,-9.45975 -1.31761,10.84833 -5.58089,-5.39164 -2.49481,11.98377 z"
       id="path4962"
       inkscape:connector-curvature="0" />
    <path
       style="fill:none;fill-rule:evenodd;stroke:#000000;stroke-width:4;stroke-linecap:butt;stroke-linejoin:miter;stroke-opacity:1"
       d="m 375.11188,749.71714 c 0,0 10.88033,-52.95091 10.88033,-48.59878 0,4.35213 8.70425,49.32413 8.70425,49.32413 l 13.78175,-49.32413 8.70425,50.77484 18.13387,-46.42271 13.78175,44.972 19.58458,-47.87342 10.88032,47.14807 10.88032,-43.52129 10.88032,35.54238"
       id="path4972"
       inkscape:connector-curvature="0" />
    <path
       style="fill:none;fill-rule:evenodd;stroke:#000000;stroke-width:4;stroke-linecap:butt;stroke-linejoin:miter;stroke-opacity:1"
       d="m 501.32362,767.12565 -5.80283,7.9789 -5.07749,-10.15496 -5.80284,8.70425 -8.70426,-8.70425 -5.80283,7.9789"
       id="path4974"
       inkscape:connector-curvature="0" />
    <path
       inkscape:connector-curvature="0"
       id="path4982"
       d="m 457.32362,767.12565 -5.80283,7.9789 -5.07749,-10.15496 -5.80284,8.70425 -8.70426,-8.70425 -5.80283,7.9789"
       style="fill:none;fill-rule:evenodd;stroke:#000000;stroke-width:4;stroke-linecap:butt;stroke-linejoin:miter;stroke-opacity:1" />
    <path
       style="fill:none;fill-rule:evenodd;stroke:#000000;stroke-width:4;stroke-linecap:butt;stroke-linejoin:miter;stroke-opacity:1"
       d="m 322.40762,672.10417 -5.80283,7.9789 -5.07749,-10.15496 -5.80284,8.70425 -8.70426,-8.70425 -5.80283,7.9789"
       id="path4986"
       inkscape:connector-curvature="0" />
  </g>
</svg>
