<?xml version="1.0" encoding="UTF-8" ?>

<svg
 xmlns="http://www.w3.org/2000/svg"

 version="1.1" width="243.18359"
   height="243.18359">

<path d="m 145.0994,187.08645 a 21.177519,21.177519 0 0 1 -21.17752,21.17752 21.177519,21.177519 0 0 1 -21.17752,-21.17752 21.177519,21.177519 0 0 1 21.17752,-21.17751 21.177519,21.177519 0 0 1 21.17752,21.17751 z m -22.3201,23.17722 a 42.175064,42.175064 0 0 0 -37.117195,22.17383 116.59167,116.59167 0 0 0 35.929695,5.74609 116.59167,116.59167 0 0 0 37.86132,-6.46679 42.175064,42.175064 0 0 0 -36.67382,-21.45313 z m -81.606875,-78.10565 0,26.5 7,0 0,56 11,0 0,-56 124.999985,0 0,56 11,0 0,-56 6.5,0 0,-26.5 -160.499985,0 z M 149.17187,45.907103 a 25.25,25.25 0 0 1 -25.24999,25.25 25.25,25.25 0 0 1 -25.250005,-25.25 A 25.25,25.25 0 0 1 123.92188,20.6571 25.25,25.25 0 0 1 149.17187,45.907103 Z M 65.671885,128.90712 A 55.75,55.75 0 0 1 121.42188,73.157123 55.75,55.75 0 0 1 177.17187,128.90712 M 121.5918,0 C 54.497805,0 1e-5,54.497793 0,121.5918 c 0,67.094 54.497805,121.59179 121.5918,121.59179 67.09399,0 121.59179,-54.49779 121.59179,-121.59179 C 243.18359,54.497793 188.68579,0 121.59179,0 Z m 0,10 c 61.68959,0 111.59179,49.902203 111.59179,111.5918 0,61.68959 -49.9022,111.59179 -111.5918,111.59179 C 59.902205,233.18359 10,183.28139 10,121.5918 10,59.902203 59.902205,10 121.59179,10 Z" style="opacity:1;fill:#000000;fill-opacity:1;stroke:none" />

</svg>
